<?xml version="1.0" encoding="utf-8"?>
<!-- Generator: Adobe Illustrator 17.0.0, SVG Export Plug-In . SVG Version: 6.00 Build 0)  -->
<!DOCTYPE svg PUBLIC "-//W3C//DTD SVG 1.1//EN" "http://www.w3.org/Graphics/SVG/1.1/DTD/svg11.dtd">
<svg version="1.1" id="Layer_1" xmlns="http://www.w3.org/2000/svg" xmlns:xlink="http://www.w3.org/1999/xlink" x="0px" y="0px"
	 width="150px" height="60px" viewBox="0 0 150 60" enable-background="new 0 0 150 60" xml:space="preserve">
<g>
	<g>
		<path fill="#434244" d="M10.576,45.836v-3.938H9.62v-1.111h0.956v-0.343c0-1.372,0.925-2.006,1.953-2.006
			c0.447,0,0.915,0.146,1.33,0.416l-0.467,0.945c-0.271-0.177-0.52-0.271-0.779-0.271c-0.437,0-0.769,0.291-0.769,0.915v0.343h1.507
			v1.111h-1.507v3.938H10.576z"/>
		<path fill="#434244" d="M18.412,40.713h1.216v5.123h-1.195l-0.062-0.748c-0.291,0.603-1.091,0.894-1.663,0.904
			c-1.517,0.01-2.639-0.925-2.639-2.723c0-1.767,1.174-2.691,2.67-2.682c0.686,0,1.34,0.322,1.631,0.832L18.412,40.713z
			 M15.336,43.27c0,0.977,0.675,1.559,1.517,1.559c1.995,0,1.995-3.107,0-3.107C16.012,41.721,15.336,42.293,15.336,43.27z"/>
		<path fill="#434244" d="M21.875,40.713l0.094,0.593c0.395-0.634,0.925-0.728,1.444-0.728c0.53,0,1.039,0.208,1.319,0.488
			l-0.571,1.102c-0.26-0.219-0.499-0.333-0.915-0.333c-0.665,0-1.278,0.354-1.278,1.299v2.702H20.7v-5.123H21.875z"/>
		<path fill="#434244" d="M28.619,45.836v-2.743c0-0.676-0.353-1.289-1.049-1.289c-0.686,0-1.091,0.613-1.091,1.289v2.743h-1.268
			v-5.133h1.174l0.094,0.623c0.27-0.52,0.862-0.707,1.351-0.707c0.613,0,1.226,0.25,1.517,0.956c0.458-0.728,1.05-0.935,1.715-0.935
			c1.455,0,2.171,0.894,2.171,2.432v2.764h-1.268v-2.764c0-0.676-0.281-1.247-0.966-1.247c-0.686,0-1.112,0.592-1.112,1.268v2.743
			H28.619z"/>
		<path fill="#434244" d="M37.04,45.836v-3.938h-0.956v-1.111h0.956v-0.343c0-1.372,0.925-2.006,1.953-2.006
			c0.447,0,0.915,0.146,1.33,0.416l-0.467,0.945c-0.271-0.177-0.52-0.271-0.779-0.271c-0.437,0-0.769,0.291-0.769,0.915v0.343h1.507
			v1.111h-1.507v3.938H37.04z"/>
		<path fill="#434244" d="M41.883,40.713l0.094,0.593c0.395-0.634,0.925-0.728,1.444-0.728c0.53,0,1.039,0.208,1.319,0.488
			l-0.571,1.102c-0.26-0.219-0.499-0.333-0.915-0.333c-0.665,0-1.278,0.354-1.278,1.299v2.702h-1.268v-5.123H41.883z"/>
		<path fill="#434244" d="M46.301,43.727c0.083,0.634,0.634,1.091,1.528,1.091c0.467,0,1.081-0.177,1.372-0.478l0.811,0.8
			c-0.541,0.562-1.424,0.831-2.203,0.831c-1.767,0-2.816-1.091-2.816-2.732c0-1.559,1.06-2.681,2.723-2.681
			c1.714,0,2.785,1.06,2.587,3.169H46.301z M49.086,42.677c-0.083-0.665-0.603-0.997-1.33-0.997c-0.686,0-1.247,0.332-1.434,0.997
			H49.086z"/>
		<path fill="#434244" d="M54.626,42.074c-0.364-0.343-0.779-0.457-1.268-0.457c-0.603,0-0.936,0.187-0.936,0.509
			c0,0.333,0.301,0.52,0.956,0.562c0.966,0.062,2.192,0.28,2.192,1.642c0,0.904-0.738,1.684-2.203,1.684
			c-0.811,0-1.621-0.135-2.369-0.914l0.624-0.904c0.363,0.405,1.195,0.706,1.766,0.717c0.478,0.011,0.925-0.239,0.925-0.613
			c0-0.354-0.291-0.499-1.018-0.54c-0.966-0.073-2.12-0.426-2.12-1.59c0-1.185,1.227-1.601,2.162-1.601
			c0.8,0,1.403,0.156,1.995,0.676L54.626,42.074z"/>
		<path fill="#434244" d="M57.651,38.562v2.847c0.457-0.592,1.018-0.769,1.6-0.769c1.455,0,2.099,0.987,2.099,2.493v2.702h-1.268
			v-2.691c0-0.936-0.488-1.33-1.164-1.33c-0.748,0-1.268,0.634-1.268,1.403v2.618h-1.268v-7.273H57.651z"/>
		<path fill="#434244" d="M65.904,39.269c0,0.987-1.497,0.987-1.497,0S65.904,38.281,65.904,39.269z M64.522,40.692v5.144h1.268
			v-5.144H64.522z"/>
		<path fill="#434244" d="M72.254,38.572v7.264h-1.185l-0.083-0.707c-0.395,0.613-1.029,0.821-1.652,0.821
			c-1.507,0-2.639-0.997-2.639-2.681c0-1.767,1.112-2.682,2.608-2.682c0.541,0,1.382,0.291,1.684,0.821v-2.837H72.254z
			 M67.962,43.27c0,0.894,0.645,1.507,1.455,1.507c0.8,0,1.486-0.582,1.486-1.507c0-0.894-0.686-1.496-1.486-1.496
			C68.607,41.773,67.962,42.345,67.962,43.27z"/>
		<path fill="#434244" d="M74.553,43.727c0.083,0.634,0.634,1.091,1.527,1.091c0.468,0,1.081-0.177,1.371-0.478l0.811,0.8
			c-0.54,0.562-1.423,0.831-2.202,0.831c-1.767,0-2.816-1.091-2.816-2.732c0-1.559,1.06-2.681,2.723-2.681
			c1.715,0,2.785,1.06,2.587,3.169H74.553z M77.337,42.677c-0.083-0.665-0.603-0.997-1.33-0.997c-0.686,0-1.247,0.332-1.434,0.997
			H77.337z"/>
		<path fill="#434244" d="M83.595,40.713h1.216v5.123h-1.195l-0.062-0.748c-0.291,0.603-1.092,0.894-1.663,0.904
			c-1.517,0.01-2.64-0.925-2.64-2.723c0-1.767,1.175-2.691,2.671-2.682c0.686,0,1.341,0.322,1.632,0.832L83.595,40.713z
			 M80.519,43.27c0,0.977,0.676,1.559,1.518,1.559c1.995,0,1.995-3.107,0-3.107C81.194,41.721,80.519,42.293,80.519,43.27z"/>
		<path fill="#434244" d="M89.229,42.074c-0.364-0.343-0.779-0.457-1.268-0.457c-0.603,0-0.936,0.187-0.936,0.509
			c0,0.333,0.302,0.52,0.956,0.562c0.967,0.062,2.192,0.28,2.192,1.642c0,0.904-0.737,1.684-2.203,1.684
			c-0.811,0-1.621-0.135-2.369-0.914l0.624-0.904c0.363,0.405,1.194,0.706,1.767,0.717c0.478,0.011,0.925-0.239,0.925-0.613
			c0-0.354-0.291-0.499-1.019-0.54c-0.967-0.073-2.12-0.426-2.12-1.59c0-1.185,1.227-1.601,2.161-1.601
			c0.801,0,1.403,0.156,1.995,0.676L89.229,42.074z"/>
	</g>
	<g>
		<g>
			<path fill="#006838" d="M26.605,19.868c0,1.96-1.114,3.343-3.343,4.15c0.807,0.25,1.47,0.528,1.988,0.835
				c1.556,0.903,2.334,2.258,2.334,4.063c0,1.768-0.682,3.174-2.046,4.221c-1.364,1.048-3.189,1.571-5.476,1.571
				c-0.826,0-1.873-0.049-3.141-0.145c-1.268-0.096-2.2-0.145-2.795-0.145c-0.519,0-1.009,0.029-1.47,0.087l-1.354,0.173
				c-0.039,0-0.105,0.01-0.202,0.029c-0.096,0-0.164,0-0.202,0c-0.826-0.02-1.239-0.365-1.239-1.038
				c0-0.614,0.298-0.922,0.894-0.922c0.153,0,0.413,0.028,0.778,0.086c0.25,0.039,0.451,0.059,0.605,0.059
				c0.979,0,1.47-0.711,1.47-2.133V19.176c0-1.441-0.49-2.161-1.47-2.161c-0.173,0-0.375,0.019-0.605,0.058
				c-0.346,0.058-0.605,0.086-0.778,0.086c-0.596,0-0.894-0.307-0.894-0.922c0-0.672,0.442-1.008,1.326-1.008h0.375l1.412,0.202
				c0.403,0.058,0.951,0.086,1.643,0.086c0.73,0,1.768-0.058,3.112-0.173c0.903-0.077,1.873-0.115,2.911-0.115
				c1.94,0,3.453,0.408,4.539,1.225C26.062,17.27,26.605,18.408,26.605,19.868z M15.568,21.107c0,1.019,0.091,1.647,0.273,1.888
				s0.687,0.36,1.513,0.36h1.614c3.4,0,5.101-1.104,5.101-3.314c0-2.017-1.403-3.025-4.208-3.025c-1.959,0-3.165,0.125-3.616,0.375
				c-0.452,0.25-0.677,0.893-0.677,1.931V21.107z M15.568,26.957v3.198c0,1.249,0.211,2.018,0.634,2.306
				c0.422,0.288,1.575,0.433,3.458,0.433c3.592,0,5.389-1.345,5.389-4.035c0-2.479-1.729-3.718-5.187-3.718H17.47
				c-1.038,0-1.633,0.231-1.787,0.692C15.606,26.063,15.568,26.438,15.568,26.957z"/>
			<path fill="#006838" d="M43.232,26.092c0,0.73-0.048,1.177-0.144,1.34c-0.096,0.164-0.375,0.245-0.835,0.245h-9.164
				c-0.25,0-0.413,0.034-0.49,0.101c-0.077,0.067-0.115,0.178-0.115,0.331c0,1.441,0.432,2.642,1.297,3.603
				c0.864,0.961,1.94,1.44,3.228,1.44c0.845,0,1.618-0.23,2.32-0.691c0.701-0.461,1.157-1.047,1.369-1.758l0.259-0.836
				c0.134-0.461,0.451-0.691,0.951-0.691c0.71,0,1.066,0.365,1.066,1.095c0,1.249-0.634,2.358-1.902,3.328
				c-1.268,0.971-2.709,1.456-4.322,1.456c-2.018,0-3.622-0.678-4.812-2.032c-1.191-1.354-1.787-3.174-1.787-5.46
				c0-2.344,0.634-4.246,1.902-5.706s2.92-2.19,4.957-2.19c1.805,0,3.294,0.605,4.466,1.815
				C42.646,22.692,43.232,24.229,43.232,26.092z M32.771,25.343c0,0.269,0.211,0.403,0.634,0.403h6.887
				c0.403,0,0.605-0.134,0.605-0.403c0-1.018-0.385-1.902-1.153-2.651c-0.769-0.749-1.671-1.124-2.708-1.124
				c-1.076,0-2.056,0.389-2.939,1.167C33.213,23.513,32.771,24.383,32.771,25.343z"/>
			<path fill="#006838" d="M58.447,26.092c0,0.73-0.048,1.177-0.144,1.34c-0.096,0.164-0.375,0.245-0.835,0.245h-9.164
				c-0.25,0-0.413,0.034-0.49,0.101c-0.077,0.067-0.115,0.178-0.115,0.331c0,1.441,0.432,2.642,1.297,3.603
				c0.864,0.961,1.94,1.44,3.228,1.44c0.845,0,1.618-0.23,2.32-0.691c0.701-0.461,1.157-1.047,1.369-1.758l0.259-0.836
				c0.134-0.461,0.451-0.691,0.951-0.691c0.71,0,1.066,0.365,1.066,1.095c0,1.249-0.634,2.358-1.902,3.328
				c-1.268,0.971-2.709,1.456-4.322,1.456c-2.018,0-3.622-0.678-4.812-2.032c-1.191-1.354-1.787-3.174-1.787-5.46
				c0-2.344,0.634-4.246,1.902-5.706s2.92-2.19,4.957-2.19c1.805,0,3.294,0.605,4.466,1.815
				C57.861,22.692,58.447,24.229,58.447,26.092z M47.987,25.343c0,0.269,0.211,0.403,0.634,0.403h6.887
				c0.403,0,0.605-0.134,0.605-0.403c0-1.018-0.385-1.902-1.153-2.651c-0.769-0.749-1.671-1.124-2.708-1.124
				c-1.076,0-2.056,0.389-2.939,1.167C48.429,23.513,47.987,24.383,47.987,25.343z"/>
			<path fill="#006838" d="M68.591,30.588v-1.844c0.019-0.788,0.365-1.182,1.038-1.182c0.672,0,1.009,0.442,1.009,1.326
				c0,2.094-0.268,3.555-0.802,4.38c-0.725,1.114-1.917,1.672-3.577,1.672c-1.526,0-2.614-0.49-3.263-1.47
				c-0.478-0.711-0.715-1.921-0.715-3.631v-6.916c0-0.403-0.187-0.605-0.56-0.605h-0.943c-0.314,0-0.575-0.101-0.781-0.303
				c-0.207-0.202-0.31-0.447-0.31-0.735c0-0.269,0.101-0.509,0.303-0.72s0.427-0.317,0.677-0.317h1.124
				c0.327,0,0.49-0.183,0.49-0.548v-2.968c0-0.73,0.375-1.095,1.124-1.095c0.692,0,1.038,0.365,1.038,1.095v3.083
				c0,0.289,0.173,0.433,0.519,0.433h3.141c0.73,0,1.095,0.336,1.095,1.008c0,0.711-0.394,1.066-1.182,1.066h-3.17
				c-0.269,0-0.403,0.202-0.403,0.605v7.089c0,2.017,0.672,3.025,2.016,3.025C67.821,33.037,68.532,32.221,68.591,30.588z"/>
			<path fill="#006838" d="M76.457,20.978v0.792c0.999-1.402,2.335-2.104,4.006-2.104c1.345,0,2.436,0.38,3.271,1.138
				c0.836,0.759,1.254,1.734,1.254,2.925c0,0.845-0.212,1.532-0.634,2.06c-0.423,0.529-0.979,0.792-1.672,0.792
				c-0.441,0-0.816-0.134-1.123-0.403c-0.308-0.269-0.462-0.595-0.462-0.979c0-0.307,0.116-0.581,0.347-0.821s0.499-0.36,0.807-0.36
				c0.058,0,0.183,0.029,0.374,0.086c0.115-0.23,0.173-0.442,0.173-0.634c0-0.557-0.244-1.027-0.734-1.412s-1.1-0.577-1.83-0.577
				c-1.498,0-2.497,0.673-2.997,2.018c-0.308,0.826-0.461,2.075-0.461,3.746v1.902c0,1.287,0.01,2.007,0.028,2.162
				c0.097,1.095,0.395,1.643,0.894,1.643c0.25,0,0.509-0.033,0.778-0.099c0.211-0.05,0.394-0.075,0.548-0.075
				c0.614,0,0.922,0.304,0.922,0.908c0,0.663-0.393,0.994-1.178,0.994h-0.114c-0.287,0-0.724-0.034-1.308-0.101
				c-0.583-0.067-1.019-0.102-1.306-0.102c-0.767,0-1.37,0.02-1.81,0.058l-1.608,0.145c-0.786,0-1.178-0.336-1.178-1.009
				c0-0.595,0.369-0.894,1.105-0.894c0.194,0,0.339,0.011,0.437,0.029l0.436,0.087c0.194,0.038,0.33,0.058,0.407,0.058
				c0.484,0,0.747-0.442,0.785-1.326v-1.47l-0.086-6.541c-0.058-1.133-0.346-1.7-0.864-1.7c-0.154,0-0.365,0.029-0.634,0.086
				s-0.48,0.086-0.634,0.086c-0.634,0-0.951-0.307-0.951-0.922c0-0.672,0.413-1.008,1.239-1.008c0.192,0,0.48,0.024,0.865,0.072
				c0.384,0.048,0.672,0.072,0.864,0.072c0.153,0,0.403-0.024,0.749-0.072c0.154-0.048,0.336-0.072,0.548-0.072
				C76.207,20.156,76.457,20.43,76.457,20.978z"/>
			<path fill="#006838" d="M121.7,35.055c-2.018,0-3.631-0.696-4.842-2.09c-1.21-1.393-1.815-3.261-1.815-5.604
				s0.61-4.212,1.83-5.605c1.22-1.393,2.857-2.089,4.913-2.089c2.094,0,3.746,0.682,4.957,2.046c1.21,1.365,1.815,3.218,1.815,5.562
				s-0.625,4.226-1.873,5.648C125.437,34.344,123.774,35.055,121.7,35.055z M121.844,21.568c-1.345,0-2.401,0.471-3.17,1.412
				c-0.769,0.941-1.191,2.277-1.268,4.006v0.375c0,1.806,0.379,3.223,1.139,4.25c0.759,1.028,1.819,1.542,3.184,1.542
				c1.402,0,2.502-0.514,3.3-1.542c0.797-1.027,1.196-2.454,1.196-4.279C126.225,23.489,124.764,21.568,121.844,21.568z"/>
			<path fill="#006838" d="M138.816,30.588v-1.844c0.02-0.788,0.365-1.182,1.037-1.182c0.673,0,1.009,0.442,1.009,1.326
				c0,2.094-0.268,3.555-0.801,4.38c-0.726,1.114-1.918,1.672-3.578,1.672c-1.526,0-2.614-0.49-3.263-1.47
				c-0.477-0.711-0.715-1.921-0.715-3.631v-6.916c0-0.403-0.188-0.605-0.561-0.605h-0.942c-0.314,0-0.575-0.101-0.781-0.303
				s-0.31-0.447-0.31-0.735c0-0.269,0.101-0.509,0.303-0.72c0.201-0.211,0.427-0.317,0.677-0.317h1.124
				c0.326,0,0.49-0.183,0.49-0.548v-2.968c0-0.73,0.374-1.095,1.124-1.095c0.691,0,1.037,0.365,1.037,1.095v3.083
				c0,0.289,0.173,0.433,0.519,0.433h3.142c0.729,0,1.095,0.336,1.095,1.008c0,0.711-0.395,1.066-1.182,1.066h-3.17
				c-0.27,0-0.403,0.202-0.403,0.605v7.089c0,2.017,0.672,3.025,2.017,3.025C138.047,33.037,138.758,32.221,138.816,30.588z"/>
		</g>
	</g>
	<g>
		
			<radialGradient id="SVGID_1_" cx="171.0057" cy="-42.9044" r="28.3432" gradientTransform="matrix(0.4749 -0.88 0.88 0.4749 59.0292 197.8403)" gradientUnits="userSpaceOnUse">
			<stop  offset="0" style="stop-color:#FDF6EA"/>
			<stop  offset="0.4409" style="stop-color:#FBEACF"/>
			<stop  offset="0.809" style="stop-color:#FAE2BD"/>
		</radialGradient>
		<path display="none" fill="url(#SVGID_1_)" d="M127.298,2.884c-2.123-0.031-5.353,2.107-7.236,0.724
			c-0.613-0.45-0.588-1.083-1.334-1.483c-1.038-0.557-2.362,0.094-3.527,0.496c-0.527-1.967-1.291-3.974-2.713-5.508
			c-3.016-3.252-6.568,0.434-9.79-1.077c-2.176-1.02-2.67-1.841-4.932-0.182c-2.279,1.672-4.441,4.081-6.039,6.373
			c-1.26,1.808-0.922,3.294-0.527,5.522c0.251,1.417,0.622,3.05,0.824,4.654c-0.855,1.885-1.619,3.782-2.367,5.834
			c-0.229,0.63-0.41,1.363-0.608,2.114c-0.243,0.277-0.472,0.55-0.672,0.818c-1.118,1.501-2.135,2.948-3.099,4.433
			c-1.687,0.947-3.672,1.668-5.289,2.362c-2.079,0.893-3.507,1.426-4.326,3.472c-1.039,2.594-1.866,5.724-2.012,8.547
			c-0.146,2.802,0.812,2.763,2.859,4.023c3.031,1.864,1.9,6.857,6.274,7.593c2.193,0.369,4.425-0.177,6.458-0.878
			c0.377,1.245,0.478,2.974,1.624,3.596c0.744,0.404,1.259,0.036,1.972,0.301c2.19,0.815,2.175,4.688,3.367,6.446
			c1.837,2.709,6.436,4.747,8.564,1.727c0.808-1.146,1.366-2.324,1.64-3.548c1.271-0.721,2.239-2.098,3.287-3.087
			c4.088-3.859,6.078-8.94,7.291-14.41c0.04-0.18,0.078-0.355,0.116-0.528c0.786-1.713,1.393-3.471,1.929-4.761
			c0.982-2.362,2.262-3.562,3.996-5.345c3.906-4.017,7.061-8.469,8.043-14.005c0.29-1.636,1.07-3.466,0.678-5.103
			c0.697-0.822,1.255-1.796,1.695-2.91C134.798,5.657,130.571,2.932,127.298,2.884z"/>
		
			<radialGradient id="SVGID_2_" cx="121.0792" cy="-430.5692" r="3.2493" gradientTransform="matrix(0.4642 -0.8602 0.4981 0.2688 255.1631 260.7728)" gradientUnits="userSpaceOnUse">
			<stop  offset="0" style="stop-color:#FDF6EA"/>
			<stop  offset="0.1133" style="stop-color:#F8EEDE"/>
			<stop  offset="0.5769" style="stop-color:#E8D1AF"/>
			<stop  offset="0.809" style="stop-color:#E1C69D"/>
		</radialGradient>
		<path display="none" fill="url(#SVGID_2_)" d="M110.573,37.09c0.029-0.039,0.046-0.061,0.046-0.061
			C110.604,37.05,110.589,37.069,110.573,37.09z M105.718,46.324c-0.013-0.038-0.017-0.082-0.017-0.131
			C105.689,46.262,105.688,46.316,105.718,46.324z M110.573,37.09c-0.002,0.002-0.003,0.004-0.005,0.006l0,0
			C110.57,37.094,110.571,37.092,110.573,37.09z M104.358,50.403c0.012,0.006,0.025,0.008,0.041-0.001
			C104.384,50.405,104.37,50.405,104.358,50.403z M116.928,26.85c0.059-0.127,0.094-0.233,0.131-0.337
			c-0.144,0.294-0.277,0.585-0.39,0.819C116.748,27.183,116.86,26.999,116.928,26.85z M117.94,25.146
			c0.02,0.059,0.087,0.076,0.101,0.138C118.034,25.197,118,25.15,117.94,25.146z M103.944,50.426
			c0.047-0.141,0.018-0.157,0.011-0.221C103.942,50.314,103.937,50.411,103.944,50.426z M117.005,26.429
			c0.053-0.11,0.103-0.216,0.154-0.321C117.094,26.221,117.034,26.336,117.005,26.429z M114.3,30.178
			c-0.001,0.002-0.002,0.004-0.003,0.006c0-0.001,0.001-0.001,0.002-0.002C114.299,30.181,114.3,30.179,114.3,30.178z
			 M103.08,47.456c-0.024,0.054-0.042,0.101-0.051,0.137C103.043,47.549,103.061,47.503,103.08,47.456z M103.892,47.333
			c-0.011,0.037-0.019,0.07-0.02,0.091C103.877,47.395,103.884,47.365,103.892,47.333z M103.098,52.165
			c0.004,0.027,0.011,0.045,0.025,0.048C103.112,52.202,103.104,52.185,103.098,52.165z M103.654,46.108
			c-0.092,0.137-0.179,0.274-0.202,0.319C103.543,46.327,103.586,46.227,103.654,46.108z M119.658,12.489
			c0.911-2.356,0.769-2.743,0.565-2.321c-0.205,0.421-0.709,1.83-3.067,6.42c-0.154,0.299-0.301,0.587-0.442,0.864
			c1.496-3.323,3.055-6.82,3.116-7c0.115-0.343,0.147-0.398-0.149-0.595c-0.073-0.049-0.468,0.761-1.02,2.007
			c0.212-0.54,0.332-0.871,0.309-0.873c0.39-1.067-0.126-0.266-0.93,0.545c-0.13,0.131-0.332,0.529-0.579,1.103
			c0.682-1.726,1.246-3.161,1.241-3.294c-0.011-0.312-0.333-0.246-0.696-0.036c-0.011-0.044-0.062,0.058-0.137,0.245
			c-0.227,0.514-0.67,1.783-1.192,3.347c0.097-0.465,0.154-0.803,0.18-0.996c0.123-0.893-0.483,0.035-0.73,0.492
			c-0.081,0.149-0.155,0.44-0.241,0.86c-0.157-0.035-0.481,0.185-0.818,0.485c-0.264,0.235-1.265,4.964-1.963,8.397
			c-0.222,0.111-0.392,0.204-0.474,0.255c-0.445,0.277-0.71,1.091-0.71,1.091c-0.017,0.016-0.034,0.032-0.052,0.048
			c0,0-0.092,0.097-0.257,0.289c-0.622,0.701-1.287,1.586-1.948,2.606c-0.832,1.246-1.818,2.893-2.807,4.936
			c-0.025,0.041-0.043,0.08-0.06,0.126c-0.035,0.072-0.07,0.144-0.105,0.218c-0.018,0.037-0.035,0.074-0.052,0.111l0,0
			c-0.396,0.829-0.749,1.635-1.049,2.4c-0.027,0.067-0.055,0.134-0.082,0.202c0,0-0.806,1.75-1.134,3.708
			c-0.024,0.099-0.053,0.239-0.048,0.312c-0.154,1.107-0.137,2.253,0.278,3.168c0,0,0.469,0.892,0.158,3.001
			c-0.029,0.03-0.062,0.067-0.079,0.09c0.114-0.164-0.07-0.059-0.188,0.138c0.12-0.036-0.202,0.352-0.259,0.38
			c-0.004,0.037-0.302,0.479-0.373,0.584c-0.063,0.092-0.127,0.173-0.189,0.277c-0.006,0.011-0.012,0.021-0.018,0.032
			c0.109-0.162,0.224-0.324,0.246-0.335c-0.141,0.301-0.301,0.603-0.443,0.897c-0.118,0.245-0.275,0.533-0.378,0.786
			c0.092-0.206,0.269-0.514,0.347-0.678c0.126-0.263,0.265-0.521,0.386-0.783c0.153-0.331,0.309-0.575,0.505-0.812
			c0.151-0.182,0.301-0.426,0.435-0.525c-0.038,0.246-0.085,0.508-0.146,0.787c-0.068,0.128-0.138,0.258-0.167,0.311
			c-0.057,0.103-0.119,0.203-0.171,0.311c-0.005,0.011-0.01,0.022-0.015,0.033c0.097-0.181,0.204-0.367,0.231-0.392
			c-0.097,0.281-0.219,0.579-0.32,0.858c-0.087,0.241-0.217,0.543-0.273,0.768c0.053-0.183,0.208-0.523,0.266-0.685
			c0.088-0.248,0.196-0.505,0.278-0.748c0.045-0.132,0.096-0.257,0.154-0.379c-0.076,0.34-0.168,0.704-0.284,1.094
			c0,0-0.204,0.743-0.473,1.632c-0.033,0.068-0.067,0.137-0.107,0.194c-0.001-0.006,0.002-0.016,0.002-0.024
			c-0.089,0.156-0.177,0.306-0.265,0.46c-0.103,0.18-0.226,0.328-0.319,0.505c-0.11,0.211-0.171,0.424-0.276,0.641
			c-0.054,0.109-0.1,0.202-0.144,0.293c0.08-0.144,0.179-0.292,0.235-0.418c0.043-0.097,0.058-0.177,0.096-0.265
			c0.041-0.095,0.117-0.237,0.169-0.325c-0.023,0.135-0.031,0.234-0.068,0.387c-0.023,0.094-0.057,0.285-0.026,0.309
			c0.022-0.174,0.08-0.361,0.103-0.53c0.01-0.07,0.008-0.138,0.049-0.233c0.043-0.097,0.137-0.23,0.192-0.327
			c0.065-0.115,0.129-0.246,0.194-0.353c0.041-0.068,0.083-0.126,0.124-0.183c-0.162,0.531-0.344,1.103-0.517,1.593
			c-0.483,1.363-0.638,2.239-0.608,2.846c0,0,0.128,0.99-0.237,2.456c0.212-0.731,0.409-1.613,0.462-2.482
			c0,0,0.002-0.014,0.007-0.036c0.016-0.081,0.064-0.306,0.181-0.704c0.002,0.044,0.006,0.084,0.016,0.115
			c-0.006-0.045-0.001-0.116,0.006-0.19c0.094-0.313,0.227-0.724,0.417-1.248c0.03-0.069,0.06-0.137,0.092-0.206
			c0,0,0.105-0.303,0.273-0.763c0.075-0.191,0.155-0.392,0.241-0.604c0.008,0.053-0.071,0.306-0.115,0.392
			c0.03-0.027-0.014,0.327-0.026,0.413c-0.01,0.076-0.034,0.166-0.032,0.229c0,0.007,0.001,0.012,0.001,0.018
			c0.015-0.129,0.041-0.274,0.065-0.323c0.068,0.077,0.107,0.202,0.166,0.289c0.051,0.075,0.082,0.215,0.17,0.231
			c-0.06-0.029-0.078-0.207-0.114-0.256c-0.055-0.074-0.084-0.189-0.146-0.252c-0.078-0.079-0.067-0.252,0.015-0.539
			c0.041-0.143,0.056-0.259,0.092-0.394c0.005-0.012,0.009-0.023,0.014-0.035c0,0,0.035-0.095,0.096-0.256
			c0.002-0.003,0.003-0.006,0.004-0.01l0.01-0.019c0-0.003-0.001-0.002-0.002-0.004c0.14-0.369,0.4-1.044,0.687-1.747
			c0.059-0.135,0.117-0.266,0.175-0.392c0,0,0.017-0.057,0.06-0.176c0.195-0.461,0.39-0.9,0.557-1.234
			c-0.009,0.045-0.018,0.091-0.027,0.136c-0.028,0.144-0.116,0.349-0.128,0.47c-0.014,0.144,0.055,0.18,0.052,0.313
			c-0.001,0.067-0.005,0.128-0.006,0.183c0.019-0.111,0.065-0.26,0.058-0.326c-0.006-0.051-0.044-0.047-0.051-0.09
			c-0.008-0.047,0.005-0.148,0.022-0.223c0.071-0.013,0.136-0.04,0.198-0.03c0.038,0.006,0.134-0.007,0.205-0.086
			c-0.103,0.032-0.156-0.01-0.253,0.018c-0.041,0.011-0.099,0.047-0.105-0.001c-0.006-0.05,0.045-0.196,0.058-0.272
			c0.012-0.065,0.016-0.125,0.026-0.189c0.023-0.045,0.046-0.088,0.067-0.127c0,0,1.026-2.018,2.466-4.353
			c0,0,0.701-1.145,1.552-2.453c0.087-0.13,0.311-0.469,0.624-0.964l0,0c0.863-1.364,2.396-3.915,3.571-6.553
			c0.015-0.033,0.03-0.067,0.045-0.099c0.006-0.015,0.013-0.03,0.019-0.045c0.025-0.057,0.05-0.114,0.074-0.171
			c0.007-0.015,0.013-0.03,0.02-0.044c-0.001,0.002-0.003,0.004-0.003,0.005c0.311-0.72,0.59-1.442,0.82-2.146
			c0.16-0.136,0.325-0.282,0.492-0.438c0.011,0.089,0.037,0.161,0.026,0.273c-0.019,0.191-0.095,0.438-0.1,0.641
			c0.057-0.283,0.088-0.552,0.183-0.86c0.035,0.03,0.101,0.029,0.171-0.001c-0.092,0.028-0.106-0.098-0.15-0.177
			c0.514-0.488,1.047-1.051,1.55-1.621c-0.045,0.082-0.087,0.164-0.128,0.248c0.059-0.102,0.121-0.201,0.169-0.278
			c0.011-0.019,0.024-0.038,0.036-0.057c0.083-0.095,0.166-0.191,0.247-0.286c-0.035,0.06-0.068,0.119-0.113,0.196
			c-0.076,0.13-0.221,0.343-0.278,0.448c-0.078,0.147-0.121,0.264-0.162,0.382c0.209-0.429,0.441-0.863,0.665-1.137
			c-0.019,0.048-0.04,0.094-0.06,0.142c0.089,0.015-0.051,0.484-0.088,0.682c0.148-0.368,0.092-0.624,0.23-0.944
			c0.03-0.036,0.059-0.071,0.089-0.106c0.017-0.004,0.032-0.005,0.046-0.004c-0.004-0.013-0.006-0.028-0.004-0.045
			c0.306-0.371,0.589-0.732,0.833-1.062c0.397-0.539,0.776-1.121,1.134-1.734c1.146-1.963,2.07-4.239,2.678-6.399
			c0.493-1.751,0.123-2.628-0.233-3.042c-0.135-0.157-0.267-0.248-0.35-0.294c-0.006-0.023-0.016-0.041-0.031-0.05
			c-0.322-0.174-2.544,3.32-4.963,7.803c-0.272,0.504-0.535,0.998-0.787,1.481c0.007-0.171-0.029-0.296-0.029-0.296
			c-0.044-0.325-0.485-0.325-1.045-0.181C116.618,18.618,119.037,14.097,119.658,12.489z M115.173,18.721
			c0.17-0.639,0.762-2.197,1.414-3.864c-0.559,1.503-1.175,3.279-1.7,4.823C114.996,19.341,115.095,19.015,115.173,18.721z
			 M113.634,21.686c0.08-0.457,0.311-1.317,0.598-2.317c-0.066,0.307-0.138,0.628-0.216,0.967c-0.096,0.414-0.199,0.805-0.303,1.174
			C113.685,21.572,113.659,21.632,113.634,21.686z M114.704,21.348c-0.018,0.044-0.035,0.086-0.052,0.129
			c-0.005,0.002-0.01,0.004-0.015,0.005c0.035-0.081,0.07-0.164,0.105-0.248C114.729,21.274,114.716,21.313,114.704,21.348z
			 M114.23,21.633c-0.013,0.005-0.025,0.01-0.038,0.015c0.132-0.352,0.275-0.742,0.413-1.137
			C114.47,20.915,114.343,21.292,114.23,21.633z M104.254,46.1c-0.082,0.152-0.158,0.3-0.175,0.344
			C104.172,46.313,104.199,46.222,104.254,46.1z M102.431,55.272c-0.293,1.012-0.612,1.736-0.612,1.736
			C102.107,56.384,102.301,55.798,102.431,55.272z M102.725,50.315c-0.05,0.09-0.093,0.178-0.113,0.257
			C102.648,50.479,102.685,50.397,102.725,50.315z M103.73,48.409c0,0.002,0,0.004-0.001,0.006c0.003-0.006,0.007-0.011,0.01-0.017
			L103.73,48.409z"/>
		<g>
			<g>
				<g>
					
						<linearGradient id="SVGID_3_" gradientUnits="userSpaceOnUse" x1="-20.9223" y1="-1328.4368" x2="-20.9209" y2="-1328.4265" gradientTransform="matrix(0.4749 -0.88 0.88 0.4749 59.0292 197.8403)">
						<stop  offset="0" style="stop-color:#981B35"/>
						<stop  offset="0.239" style="stop-color:#6C1120"/>
						<stop  offset="0.3652" style="stop-color:#5A0D17"/>
						<stop  offset="0.9775" style="stop-color:#2B0F15"/>
					</linearGradient>
					<path display="none" fill="url(#SVGID_3_)" d="M102.585,51.578c0.043,0.022,0.084,0.039,0.123,0.042
						C102.666,51.61,102.625,51.596,102.585,51.578z M100.532,48.98c-0.084-0.202-0.243,0.21-0.105,0.404
						c0.164-0.288,0.261,0.324,0.205,0.454c0.061-0.011,0.307,0.508,0.363,0.633c0.049,0.11,0.076,0.23,0.148,0.332
						c0.007,0.011,0.015,0.02,0.023,0.03c-0.091-0.189-0.17-0.395-0.147-0.446c0.286,0.196,0.538,0.438,0.808,0.641
						c0.234,0.175,0.475,0.431,0.757,0.551c-0.211-0.11-0.456-0.415-0.616-0.531c-0.245-0.177-0.455-0.392-0.707-0.558
						c-0.318-0.21-0.469-0.474-0.531-0.846c-0.051-0.307-0.239-0.573-0.118-0.888l0.01-0.019
						C100.495,48.593,100.512,48.892,100.532,48.98z M101.166,50.833c0.077,0.16,0.162,0.308,0.202,0.341
						C101.358,50.998,101.255,50.943,101.166,50.833z M99.687,52.303c0.047-0.171-0.034-0.256-0.082-0.388
						C99.626,52.09,99.659,52.258,99.687,52.303z M99.747,49.769l0.016-0.015c-0.076-0.176-0.156,0.113-0.165,0.203
						c-0.015-0.218-0.297,0.121-0.229,0.349c0.248-0.219,0.144,0.391,0.048,0.496c0.062,0.01,0.128,0.58,0.141,0.717
						c0.012,0.12-0.001,0.242,0.034,0.362c0.004,0.013,0.008,0.024,0.013,0.036c-0.025-0.208-0.034-0.428,0.004-0.469
						c0.208,0.277,0.369,0.587,0.56,0.866c0.159,0.232,0.301,0.536,0.516,0.74c-0.153-0.181-0.28-0.523-0.389-0.677
						c-0.175-0.246-0.305-0.517-0.49-0.755c-0.234-0.3-0.293-0.6-0.232-0.972C99.624,50.34,99.53,50.028,99.747,49.769z
						 M100.685,53.052c0.04,0.048,0.083,0.085,0.127,0.103C100.766,53.125,100.724,53.089,100.685,53.052z M100.05,47.244
						c0.002-0.03-0.027-0.122-0.064-0.216C99.998,47.107,99.981,47.172,100.05,47.244z M99.459,46.042
						c-0.029-0.043-0.147-0.165-0.137-0.056l0.012,0.003c0.178,0.07,0.216,0.253,0.324,0.393c0.131,0.17,0.183,0.336,0.148,0.552
						c-0.028,0.171-0.019,0.343-0.04,0.515c-0.014,0.113,0.019,0.335-0.016,0.466c0.059-0.165,0.045-0.367,0.062-0.533
						c0.02-0.193,0.016-0.393,0.045-0.59c0.03,0.01,0.085,0.124,0.129,0.236c-0.001-0.007-0.002-0.015-0.003-0.023
						c-0.015-0.07-0.055-0.127-0.081-0.191c-0.03-0.072-0.152-0.377-0.123-0.399c-0.076-0.026-0.293-0.304-0.11-0.262
						C99.64,46.02,99.408,45.928,99.459,46.042z M99.75,47.915c-0.008,0.023-0.018,0.046-0.03,0.068
						C99.734,47.966,99.743,47.942,99.75,47.915z"/>
					<g>
						<path fill="#3B5115" d="M100.565,17.32c0,0-1.77-16.943-0.905-16.892c0.865,0.052,1.76,0.289,2.127,0.801
							c0.368,0.512-0.664,9.233-0.229,11.352c0.436,2.119-0.284,5.006-0.293,5.245C101.256,18.066,100.534,18.61,100.565,17.32z"/>
						
							<radialGradient id="SVGID_4_" cx="204.4052" cy="-204.6685" r="5.3808" gradientTransform="matrix(0.3855 -0.9227 0.9227 0.3855 202.6794 280.5855)" gradientUnits="userSpaceOnUse">
							<stop  offset="0" style="stop-color:#5E7835"/>
							<stop  offset="0.3652" style="stop-color:#5C7132"/>
							<stop  offset="0.9775" style="stop-color:#283F1B"/>
						</radialGradient>
						<path fill="url(#SVGID_4_)" d="M100.315,20.619c0,0-5.592-16.092-4.738-16.239c0.853-0.147,1.779-0.121,2.254,0.293
							c0.475,0.415,1.363,9.07,2.271,11.034c0.908,1.964,0.965,5.009,1.011,5.244S100.579,21.881,100.315,20.619z"/>
						<path fill="#65922F" d="M101.633,18.338c0,0-1.039-13.872,0.509-14.311c1.547-0.439,2.239-1.169,2.209,0.121
							c-0.031,1.29-1.921,14.11-2.379,14.516C101.512,19.071,101.633,18.338,101.633,18.338z"/>
						<path fill="#3B5115" d="M102.303,18.659c0,0,1.872-16.196,2.973-15.564c1.101,0.632,1.062,0.686,1.083,1.111
							c0.021,0.425-3.421,14.255-3.708,14.54C102.363,19.03,102.303,18.659,102.303,18.659z"/>
						<path fill="#2B3D0C" d="M102.678,18.752c0,0,6.04-11.932,6.09-12.612s-1.367-2.423-1.532-1.968
							c-0.165,0.455-0.175,2.17-2.35,6.993C102.71,15.987,102.257,18.201,102.678,18.752z"/>
						
							<radialGradient id="SVGID_5_" cx="190.5302" cy="-59.9255" r="12.2742" gradientTransform="matrix(0.4749 -0.88 0.88 0.4749 59.0292 197.8403)" gradientUnits="userSpaceOnUse">
							<stop  offset="0" style="stop-color:#5E7835"/>
							<stop  offset="0.3652" style="stop-color:#5C7132"/>
							<stop  offset="0.9775" style="stop-color:#283F1B"/>
						</radialGradient>
						<path fill="url(#SVGID_5_)" d="M99.568,16.126c0,0,0.952-1.903-0.116-5.801c-1.068-3.899-2.384-6.497-2.132-6.964
							c0.252-0.468,1.081-1.304,1.665-0.008c0.584,1.297,2.523,6.798,1.055,12.877C100.041,16.23,99.608,16.752,99.568,16.126z"/>
						<path fill="#65922F" d="M99.579,19.605c0,0,0.951-1.903-0.116-5.801c-1.068-3.898-2.384-6.497-2.131-6.964
							c0.252-0.468,1.081-1.304,1.665-0.007c0.584,1.297,2.523,6.798,1.055,12.877C100.051,19.709,99.619,20.231,99.579,19.605z"/>
						
							<radialGradient id="SVGID_6_" cx="187.0757" cy="-59.0603" r="5.4384" gradientTransform="matrix(0.4749 -0.88 0.88 0.4749 59.0292 197.8403)" gradientUnits="userSpaceOnUse">
							<stop  offset="0" style="stop-color:#799B3E"/>
							<stop  offset="0.4824" style="stop-color:#688337"/>
							<stop  offset="0.9326" style="stop-color:#5C7132"/>
						</radialGradient>
						<path fill="url(#SVGID_6_)" d="M98.734,15.297c0,0-3.527-10.814-2.997-10.678c0.531,0.136,0.711,0.082,0.733,0.32
							C96.493,5.178,98.734,15.297,98.734,15.297z"/>
						
							<radialGradient id="SVGID_7_" cx="189.7947" cy="-66.8668" r="4.2977" gradientTransform="matrix(0.4749 -0.88 0.88 0.4749 59.0292 197.8403)" gradientUnits="userSpaceOnUse">
							<stop  offset="0" style="stop-color:#5E7835"/>
							<stop  offset="0.3652" style="stop-color:#5C7132"/>
							<stop  offset="0.9775" style="stop-color:#162313"/>
						</radialGradient>
						<path fill="url(#SVGID_7_)" d="M100.636,15.297c0,0-0.156-5.272-2.052-8.848l-0.575-0.303c0,0,0.737-0.814,1.154,0.091
							c0.418,0.905,0.775,1.829,0.86,2.053C100.475,9.483,100.636,15.297,100.636,15.297z"/>
						
							<radialGradient id="SVGID_8_" cx="195.6445" cy="-60.518" r="3.3561" gradientTransform="matrix(0.4749 -0.88 0.88 0.4749 59.0292 197.8403)" gradientUnits="userSpaceOnUse">
							<stop  offset="0" style="stop-color:#5E7835"/>
							<stop  offset="0.3652" style="stop-color:#5C7132"/>
							<stop  offset="0.9775" style="stop-color:#162313"/>
						</radialGradient>
						<path fill="url(#SVGID_8_)" d="M102.536,16.744c0,0,1.877-12.152,1.814-12.596c-0.151-1.071-0.551-0.615-0.655-0.143
							C103.591,4.478,101.862,16.552,102.536,16.744z"/>
					</g>
					<path fill="#8C1631" d="M102.004,57.31c0.203,1.306,0.017,2.123,0.017,2.123C102.216,58.741,102.172,58.01,102.004,57.31z
						 M101.862,16.552c-0.745-0.183-1.476-0.288-2.175-0.315c-0.471-0.044-0.945-0.043-1.418,0.002
						c-0.584,0.056-1.165,0.178-1.732,0.363c-0.035,0.007-0.07,0.013-0.105,0.021c0,0-0.172,0.057-0.464,0.188
						c-1.12,0.456-2.171,1.162-3.067,2.086c-1.232,1.165-2.501,2.861-3.283,5.269c-0.33,0.941-0.537,1.896-0.624,2.84
						c-0.01,0.079-0.02,0.156-0.029,0.236c0,0-1.436,5.04,4.963,10.531c0,0,3.827,3.122,4.457,7.691c0,0,0.484,2.602,0.491,4.267
						c0.008,1.665,0.474,2.899,1.216,3.903c0,0,1.443,1.721,1.912,3.675c-0.147-0.944-0.495-2.143-1.264-3.477
						c0,0-0.633-1.625-0.267-2.863c0,0-0.056-2.975,0.445-4.743c0,0-0.443-2.957,5.197-8.371c0,0,5.413-4.89,4.868-10.757
						c0.005-1.057-0.15-2.032-0.464-2.869c-0.467-1.749-1.433-3.97-3.427-5.253c0,0-0.854-0.798-2.427-1.521
						C103.896,17.103,102.956,16.768,101.862,16.552z"/>
					
						<radialGradient id="SVGID_9_" cx="174.6152" cy="-47.1006" r="3.7262" gradientTransform="matrix(0.4749 -0.88 0.88 0.4749 59.0292 197.8403)" gradientUnits="userSpaceOnUse">
						<stop  offset="0" style="stop-color:#981B35"/>
						<stop  offset="0.239" style="stop-color:#6C1120"/>
						<stop  offset="0.3652" style="stop-color:#5A0D17"/>
						<stop  offset="0.9775" style="stop-color:#2B0F15"/>
					</radialGradient>
					<path display="none" fill="url(#SVGID_9_)" d="M104.303,18.266c0,0,5.185,2.005,6.026,5.555c0,0-1.115-3.811-3.238-4.843
						C107.091,18.977,105.665,18.472,104.303,18.266z"/>
					
						<radialGradient id="SVGID_10_" cx="179.7654" cy="-54.6757" r="8.0835" gradientTransform="matrix(0.4749 -0.88 0.88 0.4749 59.0292 197.8403)" gradientUnits="userSpaceOnUse">
						<stop  offset="0.1966" style="stop-color:#B51F78"/>
						<stop  offset="0.2787" style="stop-color:#B21F70"/>
						<stop  offset="0.4068" style="stop-color:#A81D5A"/>
						<stop  offset="0.564" style="stop-color:#981B36"/>
						<stop  offset="0.5674" style="stop-color:#981B35"/>
						<stop  offset="0.7512" style="stop-color:#6C1120"/>
						<stop  offset="0.8483" style="stop-color:#5A0D17"/>
					</radialGradient>
					<path display="none" fill="url(#SVGID_10_)" d="M96.536,16.602c0,0-0.073-1.019,0.967-0.986
						c1.04,0.032,8.447,0.859,9.737,2.385c0,0,1.039,1.014,0.26,1.197l-0.207-0.036C107.293,19.162,102.825,16.595,96.536,16.602z"
						/>
					
						<radialGradient id="SVGID_11_" cx="179.6545" cy="-51.043" r="7.2073" gradientTransform="matrix(0.4749 -0.88 0.88 0.4749 59.0292 197.8403)" gradientUnits="userSpaceOnUse">
						<stop  offset="0" style="stop-color:#981B35"/>
						<stop  offset="0.239" style="stop-color:#6C1120"/>
						<stop  offset="0.3652" style="stop-color:#5A0D17"/>
						<stop  offset="0.9775" style="stop-color:#2B0F15"/>
					</radialGradient>
					<path display="none" fill="url(#SVGID_11_)" d="M97.174,16.646c0,0,9.599,1.103,10.421,2.377c0,0,2.01,2.293,2.189,3.22
						c0,0-1.892-3.211-3.755-3.536l-1.384-0.28l-3.314-0.67l2.871,0.417L97.174,16.646z"/>
					
						<radialGradient id="SVGID_12_" cx="161.5734" cy="-51.0313" r="0.5919" gradientTransform="matrix(0.4749 -0.88 0.88 0.4749 59.0292 197.8403)" gradientUnits="userSpaceOnUse">
						<stop  offset="0.236" style="stop-color:#981B35"/>
						<stop  offset="0.6367" style="stop-color:#6C1120"/>
						<stop  offset="0.8483" style="stop-color:#5A0D17"/>
					</radialGradient>
					<path display="none" fill="url(#SVGID_12_)" d="M90.666,31.781c0.276-0.076,0.58-0.156,0.866-0.227
						C91.198,31.589,90.909,31.675,90.666,31.781z"/>
					
						<radialGradient id="SVGID_13_" cx="164.6852" cy="-46.4912" r="0.5588" gradientTransform="matrix(0.4749 -0.88 0.88 0.4749 59.0292 197.8403)" gradientUnits="userSpaceOnUse">
						<stop  offset="0.236" style="stop-color:#981B35"/>
						<stop  offset="0.6367" style="stop-color:#6C1120"/>
						<stop  offset="0.8483" style="stop-color:#5A0D17"/>
					</radialGradient>
					<path display="none" fill="url(#SVGID_13_)" d="M96.229,31.037c-0.001,0-0.003,0-0.003,0c0.477,0.057,0.829,0.028,0.687-0.008
						C96.647,30.96,96.526,31.046,96.229,31.037z"/>
					
						<radialGradient id="SVGID_14_" cx="170.2186" cy="-51.1377" r="0.7169" gradientTransform="matrix(0.4749 -0.88 0.88 0.4749 59.0292 197.8403)" gradientUnits="userSpaceOnUse">
						<stop  offset="0.236" style="stop-color:#981B35"/>
						<stop  offset="0.6367" style="stop-color:#6C1120"/>
						<stop  offset="0.8483" style="stop-color:#5A0D17"/>
					</radialGradient>
					<path display="none" fill="url(#SVGID_14_)" d="M94.766,23.963c0.586,0.075,1.054,0.126,0.824,0.071
						C95.408,23.991,95.093,23.971,94.766,23.963z"/>
					
						<radialGradient id="SVGID_15_" cx="163.1093" cy="-57.4428" r="1.59" gradientTransform="matrix(0.4749 -0.88 0.88 0.4749 59.0292 197.8403)" gradientUnits="userSpaceOnUse">
						<stop  offset="0" style="stop-color:#6A0C1F"/>
						<stop  offset="0.8483" style="stop-color:#5A0D17"/>
					</radialGradient>
					<path display="none" fill="url(#SVGID_15_)" d="M91.532,31.554c0.239-0.025,0.5-0.025,0.785,0.014
						c1.688,0.231,2.309,0.34,2.309,0.34l0.774-0.035c0,0-2.272-0.547-2.898-0.507C92.298,31.379,91.933,31.456,91.532,31.554z
						 M94.933,30.639c-0.787-0.5-4.126-0.226-5.244,1.077l-0.204,0.098c0,0,0.083,0.441,0.248,0.625c0,0,0.319-0.391,0.933-0.658
						c-0.527,0.145-0.95,0.271-0.95,0.271s0.464-0.58,1.639-1.079c1.175-0.498,2.692-0.511,3.425-0.19
						c0.73,0.319,1.148,0.245,1.445,0.253C95.81,30.987,95.299,30.872,94.933,30.639z M92.658,23.66
						c-0.223-0.007-0.947-0.134-1.501-0.017c-0.467,0.098-0.837,0.168-0.942,0.187c0.592-0.161,2.291-0.585,3.208-0.398
						c1.122,0.228,1.512,0.136,1.512,0.136s-0.587-0.241-1.64-0.319c-1.053-0.077-2.424,0.014-3.056,0.276
						c-0.588,0.244-0.565,0.264-0.524,0.649c-0.046,0.034-0.093,0.071-0.137,0.113c0,0,0.055-0.036,0.141-0.084
						c0.002,0.021,0.005,0.042,0.007,0.064c0,0,0.371-0.179,0.91-0.332c0.015,0.004,0.03,0.008,0.044,0.014
						c0.342,0.159,0.517,0.254,0.595,0.296s0.209,0.126,0.395,0.201c0.186,0.075,0.369,0.086,0.369,0.086s-0.374-0.076-0.719-0.3
						c-0.345-0.224-0.384-0.245-0.384-0.245l-0.029-0.016c0,0,0.457,0.133,0.574,0.196c-0.044-0.024-0.117-0.063-0.117-0.063
						L91.1,23.963l-0.167-0.065c0,0-0.052-0.009-0.095-0.016c0.691-0.171,1.588-0.269,2.346,0.062
						c1.467,0.64,1.73,0.782,1.847,0.846c0.117,0.063,0.367,0.16,0.367,0.16s-0.511-0.313-0.862-0.503
						c-0.351-0.189-0.951-0.476-0.951-0.476s0.33-0.012,0.732-0.014c0.144,0,0.298,0.001,0.449,0.005
						c-0.692-0.088-1.548-0.21-1.62-0.228C93.014,23.701,92.881,23.667,92.658,23.66z"/>
					
						<radialGradient id="SVGID_16_" cx="162.712" cy="-41.5599" r="7.0995" gradientTransform="matrix(0.4749 -0.88 0.88 0.4749 59.0292 197.8403)" gradientUnits="userSpaceOnUse">
						<stop  offset="0" style="stop-color:#981B35"/>
						<stop  offset="0.239" style="stop-color:#6C1120"/>
						<stop  offset="0.3652" style="stop-color:#5A0D17"/>
						<stop  offset="0.9775" style="stop-color:#2B0F15"/>
					</radialGradient>
					<path display="none" fill="url(#SVGID_16_)" d="M99.708,37.418c0,0,3.806,1.903,7.39-0.542
						C107.099,36.876,103.802,39.137,99.708,37.418z"/>
					
						<radialGradient id="SVGID_17_" cx="162.519" cy="-40.4618" r="3.3736" fx="162.4469" fy="-42.3352" gradientTransform="matrix(0.4749 -0.88 0.88 0.4749 59.0292 197.8403)" gradientUnits="userSpaceOnUse">
						<stop  offset="0" style="stop-color:#981B35"/>
						<stop  offset="0.239" style="stop-color:#6C1120"/>
						<stop  offset="0.3652" style="stop-color:#5A0D17"/>
						<stop  offset="0.9775" style="stop-color:#2B0F15"/>
					</radialGradient>
					<path display="none" fill="url(#SVGID_17_)" d="M106.174,37.244c-0.431,0.233-1.102,0.136-1.574,0.133
						c-0.332-0.002-0.554,0.108-0.861,0.181c-0.308,0.073-0.627-0.024-0.933-0.06c-0.397-0.046-0.72-0.208-1.109-0.329
						c-0.28-0.087-0.442,0.003-0.72,0.025c0.464,0.054,0.818,0.324,1.255,0.378c0.346,0.043,0.611,0.009,0.957,0.109
						c0.419,0.122,0.606-0.102,0.989-0.165c0.265-0.044,0.693-0.06,0.954-0.008c0.019,0.045,0.029,0.072,0.039,0.12
						c-0.367,0.294-0.708,0.35-1.13,0.503c0.187,0.04,0.824-0.011,1.021-0.133c0.142-0.088,0.194-0.302,0.34-0.406
						c0.266-0.191,0.589-0.025,0.845-0.183c-0.181,0.217-0.451,0.316-0.619,0.513c0.097-0.113,0.242-0.146,0.335-0.256
						c0.34-0.032,0.52-0.398,0.745-0.622c0.122-0.12,0.209-0.273,0.324-0.394c0.132-0.138,0.331-0.203,0.429-0.373
						c-0.151,0.2-0.417,0.244-0.612,0.38C106.602,36.829,106.44,37.1,106.174,37.244z M103.454,36.919
						c0.3,0.075,0.475,0.072,0.774,0.031c0.073-0.01,0.147-0.017,0.22-0.022c-0.893-0.058-1.78-0.216-2.661-0.393
						C102.239,36.783,102.943,36.791,103.454,36.919z M105.503,36.826c-0.348,0.092-0.704,0.077-1.055,0.101
						c0.305,0.02,0.61,0.028,0.916,0.021c0.188-0.004,0.413,0.053,0.59,0.019c0.225-0.043,0.349-0.217,0.517-0.34
						c-0.17,0.021-0.357-0.044-0.525,0.002C105.791,36.673,105.67,36.782,105.503,36.826z M107.74,35.896
						c-0.158,0.151-0.255,0.088-0.448,0.129c-0.719,0.154-1.301,0.389-2.085,0.138c0.299,0.115,0.809,0.238,1.137,0.22
						c0.132-0.007,0.329,0.011,0.527,0.013c-0.04,0.028-0.075,0.058-0.111,0.087c0.091-0.033,0.183-0.062,0.278-0.09
						c0.19-0.011,0.362-0.05,0.449-0.158c-0.019,0.008-0.037,0.014-0.055,0.019c0.08-0.037,0.157-0.079,0.226-0.134l-0.124,0.16
						c0.182-0.16,0.531-0.611,0.599-0.844C107.894,35.519,107.908,35.737,107.74,35.896z M106.471,36.628
						c0.028-0.004,0.056-0.009,0.084-0.018c0.085-0.029,0.146-0.077,0.205-0.127c-0.073,0.027-0.144,0.057-0.211,0.094
						C106.522,36.593,106.496,36.61,106.471,36.628z"/>
					
						<radialGradient id="SVGID_18_" cx="176.5789" cy="-47.1689" r="4.9027" fx="176.4742" fy="-49.8913" gradientTransform="matrix(0.4749 -0.88 0.88 0.4749 59.0292 197.8403)" gradientUnits="userSpaceOnUse">
						<stop  offset="0" style="stop-color:#981B35"/>
						<stop  offset="0.239" style="stop-color:#6C1120"/>
						<stop  offset="0.3652" style="stop-color:#5A0D17"/>
						<stop  offset="0.9775" style="stop-color:#2B0F15"/>
					</radialGradient>
					<path display="none" fill="url(#SVGID_18_)" d="M110.584,24.578c-0.09,0.399-0.787,0.43-1.186,0.608
						c0.291-0.099,1.147-0.059,1.369-0.015c-0.075-0.378-0.189-0.786-0.317-1.181c-0.603,0.095-1.504,0.389-2.25,0.26
						C108.993,24.444,109.785,24.418,110.584,24.578z M104.062,20.496c0.338,0.149,0.69,0.329,0.951,0.374
						c0.574,0.098,1.115,0,1.668,0.025c0.757,0.034,2.034,0.58,2.563,1.121c-0.422-0.111-0.677-0.008-1.048-0.033
						c-0.42-0.029-0.884-0.33-1.289-0.223c0.18,0.185,1.391,0.636,1.745,0.638c0.596,0.005,0.942-0.348,1.3,0.411
						c-0.433,0.342-0.536-0.026-0.883-0.042c-0.167-0.007-0.299,0.037-0.421,0.067c0.331,0.086,0.679,0.189,0.937,0.347
						c0.277,0.17,0.544,0.486,0.843,0.735c-0.268-0.82-0.586-1.573-0.717-1.874C108.223,20.422,105.978,20.821,104.062,20.496z
						 M108.646,22.835c-0.187-0.049-0.37-0.093-0.527-0.139C108.326,22.887,108.479,22.875,108.646,22.835z M104.062,20.496
						c-0.313-0.138-0.612-0.248-0.812-0.197C103.511,20.386,103.783,20.449,104.062,20.496z M109.398,25.187
						c-0.033,0.011-0.06,0.024-0.077,0.039C109.345,25.212,109.371,25.199,109.398,25.187z M108.2,24.251
						c-0.126-0.031-0.253-0.067-0.379-0.11C107.94,24.193,108.068,24.227,108.2,24.251z"/>
					
						<radialGradient id="SVGID_19_" cx="170.5074" cy="-37.5523" r="0.7974" gradientTransform="matrix(0.4749 -0.88 0.88 0.4749 59.0292 197.8403)" gradientUnits="userSpaceOnUse">
						<stop  offset="0" style="stop-color:#981B35"/>
						<stop  offset="0.239" style="stop-color:#6C1120"/>
						<stop  offset="0.3652" style="stop-color:#5A0D17"/>
						<stop  offset="0.9775" style="stop-color:#2B0F15"/>
					</radialGradient>
					<path display="none" fill="url(#SVGID_19_)" d="M109.862,30.415c-0.291-0.033-0.656-0.257-0.919-0.221
						C109.192,30.301,109.557,30.42,109.862,30.415z M104.397,32.634c0.464,0.281,0.975,0.187,1.459,0.186
						c-0.161-0.031-0.324-0.054-0.492-0.056C105.01,32.761,104.73,32.823,104.397,32.634z M105.856,32.819
						c0.302,0.058,0.596,0.146,0.897,0.185c0.101,0.013,0.199,0.022,0.295,0.028c-0.249-0.05-0.495-0.118-0.763-0.175
						C106.145,32.827,106.002,32.819,105.856,32.819z M110.079,30.06c-0.08-0.02-0.16-0.035-0.238-0.036
						C109.91,30.04,109.992,30.053,110.079,30.06z M110.829,29.857c0,0,0.001-0.002,0.002-0.002c0,0,0.001-0.003,0.001-0.004
						C110.831,29.853,110.83,29.855,110.829,29.857z M110.079,30.06c0.18,0.045,0.362,0.119,0.54,0.15
						c-0.241-0.014-0.411,0.166-0.648,0.197c-0.035,0.005-0.072,0.007-0.11,0.007c0.005,0.001,0.01,0.002,0.015,0.003
						c0.255,0.023,0.552,0.009,0.779,0.156c0.04-0.14,0.077-0.281,0.111-0.422c0.011-0.104,0.029-0.203,0.063-0.294
						C110.678,30.053,110.351,30.084,110.079,30.06z M108.332,31.022c0.233,0.131,0.453,0.157,0.665,0.134
						c-0.055,0.001-0.114-0.003-0.179-0.015C108.642,31.108,108.492,31.025,108.332,31.022z M109.712,30.958
						c-0.233,0.076-0.468,0.171-0.715,0.198c0.15-0.002,0.277-0.041,0.452-0.065c0.316-0.043,0.755-0.159,1.038,0.018
						c-0.382-0.058-0.661,0.342-1.033,0.426c-0.137,0.031-0.305,0.054-0.485,0.07c0.532,0.051,1.062,0.058,1.406-0.262
						c-0.189,0.255-0.61,0.256-0.891,0.41c-0.274,0.151-0.428,0.301-0.744,0.316c-0.3,0.014-0.622-0.05-0.941-0.056
						c-0.562-0.012-1.121,0.023-1.685-0.072c0.742,0.138,1.509,0.149,2.271,0.226c0.305,0.031,0.704-0.025,1.072-0.141
						c-0.305,0.25-0.603,0.526-1.046,0.598c-0.145,0.024-0.306,0.049-0.475,0.072c0.068,0,0.135-0.001,0.201-0.007
						c0.197-0.016,0.679-0.156,1.102-0.327c-0.052,0.068-0.103,0.134-0.157,0.19c0.23-0.127,0.463-0.276,0.705-0.442
						c0.154,0.035,0.281-0.024,0.389-0.132c0.115-0.293,0.277-0.73,0.421-1.204C110.377,30.945,109.943,30.883,109.712,30.958z
						 M108.969,31.604c-0.484-0.047-0.97-0.13-1.32-0.041C107.982,31.633,108.515,31.643,108.969,31.604z M107.935,32.695
						c-0.812-0.005-1.706-0.4-2.481-0.256C106.065,32.867,107.108,32.807,107.935,32.695z M107.048,33.032
						c0.241,0.048,0.485,0.08,0.755,0.068c0.431-0.019,0.895-0.211,1.218-0.489c0.021-0.018,0.041-0.038,0.061-0.06
						C108.463,32.893,107.851,33.082,107.048,33.032z M106.113,31.94c-0.103-0.019-0.205-0.04-0.307-0.065
						C105.909,31.902,106.011,31.923,106.113,31.94z"/>
					
						<linearGradient id="SVGID_20_" gradientUnits="userSpaceOnUse" x1="154.1576" y1="-40.7452" x2="155.3205" y2="-31.9403" gradientTransform="matrix(0.4749 -0.88 0.88 0.4749 59.0292 197.8403)">
						<stop  offset="0" style="stop-color:#981B35"/>
						<stop  offset="0.239" style="stop-color:#6C1120"/>
						<stop  offset="0.3652" style="stop-color:#5A0D17"/>
						<stop  offset="0.9775" style="stop-color:#2B0F15"/>
					</linearGradient>
					<path display="none" fill="url(#SVGID_20_)" d="M105.958,37.871c0,0-3.156,2.676-4.843,3.377c0,0-0.892,0.626-0.767,2.354
						c0.125,1.728,0.01,6.046-0.046,7.828c0,0-0.113,1.602,0.438,2.402c0,0-0.62-1.506-0.147-4.762c0,0,0.156-3.578,0.785-4.673
						c0,0,0.924-2.132,2.752-4.329c0,0,1.113-1.363,2.478-2.703L105.958,37.871z"/>
					
						<linearGradient id="SVGID_21_" gradientUnits="userSpaceOnUse" x1="-17.8726" y1="-1322.4419" x2="-17.8372" y2="-1322.1736" gradientTransform="matrix(0.4749 -0.88 0.88 0.4749 59.0292 197.8403)">
						<stop  offset="0" style="stop-color:#981B35"/>
						<stop  offset="0.239" style="stop-color:#6C1120"/>
						<stop  offset="0.3652" style="stop-color:#5A0D17"/>
						<stop  offset="0.9775" style="stop-color:#2B0F15"/>
					</linearGradient>
					<path display="none" fill="url(#SVGID_21_)" d="M101.023,43.873c-0.012,0.168,0.168,0.278,0.171,0.438
						c-0.014,0-0.027-0.005-0.04-0.007c0.062,0.173,0.115,0.344,0.176,0.516c0.071,0.2,0.024,0.434,0.119,0.616
						c0.113,0.216,0.359,0.347,0.493,0.558c0.068,0.106,0.119,0.199,0.178,0.286c-0.062-0.157-0.083-0.347-0.175-0.46
						c-0.071-0.087-0.184-0.123-0.251-0.199c-0.073-0.083-0.142-0.231-0.172-0.334c0.199,0.055,0.366,0.082,0.562,0.164
						c0.12,0.05,0.396,0.133,0.524,0.082c-0.275-0.059-0.479-0.182-0.742-0.243c-0.11-0.025-0.245-0.03-0.316-0.114
						c-0.072-0.086-0.075-0.266-0.115-0.373c-0.047-0.127-0.128-0.254-0.161-0.379c-0.042-0.162-0.001-0.319-0.044-0.481
						C101.19,43.789,101.044,43.584,101.023,43.873z M102.12,46.28c0.039,0.098,0.093,0.183,0.191,0.228
						C102.23,46.432,102.172,46.358,102.12,46.28z M101.143,44.302c0.004,0,0.007,0.001,0.011,0.002
						c-0.002-0.006-0.004-0.013-0.007-0.019L101.143,44.302z M98.569,47.719c0.002,0.003,0.003,0.006,0.005,0.009
						c0.004-0.006,0.008-0.011,0.011-0.017L98.569,47.719z M97.588,49.694c-0.055,0.09-0.089,0.185-0.065,0.29
						C97.534,49.874,97.558,49.783,97.588,49.694z M98.838,47.363c-0.141,0.092-0.12,0.302-0.245,0.401
						c-0.009-0.011-0.013-0.025-0.019-0.036c-0.1,0.154-0.204,0.3-0.304,0.453c-0.117,0.178-0.331,0.282-0.418,0.468
						c-0.103,0.221-0.059,0.496-0.145,0.73c-0.043,0.118-0.086,0.215-0.12,0.315c0.087-0.144,0.225-0.276,0.26-0.418
						c0.026-0.109-0.014-0.221,0.006-0.321c0.022-0.108,0.098-0.253,0.161-0.339c0.077,0.192,0.157,0.341,0.21,0.547
						c0.033,0.126,0.134,0.396,0.252,0.467c-0.12-0.254-0.145-0.491-0.256-0.738c-0.047-0.103-0.125-0.213-0.101-0.32
						c0.025-0.109,0.166-0.221,0.227-0.318c0.072-0.114,0.124-0.255,0.205-0.357c0.103-0.132,0.253-0.194,0.356-0.327
						C99.006,47.445,99.081,47.205,98.838,47.363z"/>
					
						<linearGradient id="SVGID_22_" gradientUnits="userSpaceOnUse" x1="151.9804" y1="-45.5199" x2="152.3791" y2="-44.2351" gradientTransform="matrix(0.4749 -0.88 0.88 0.4749 59.0292 197.8403)">
						<stop  offset="0" style="stop-color:#981B35"/>
						<stop  offset="0.239" style="stop-color:#6C1120"/>
						<stop  offset="0.3652" style="stop-color:#5A0D17"/>
						<stop  offset="0.9775" style="stop-color:#2B0F15"/>
					</linearGradient>
					<path display="none" fill="url(#SVGID_22_)" d="M99.206,41.725c-0.024,0.007-0.048,0.012-0.073,0.016
						C99.155,41.741,99.18,41.734,99.206,41.725z M97.946,46.295c-0.016-0.04-0.028-0.082-0.038-0.124
						C97.915,46.219,97.925,46.262,97.946,46.295z M97.677,44.586c-0.084,0.156-0.154,0.312-0.157,0.364
						C97.656,44.837,97.64,44.721,97.677,44.586z M98.168,43.568c0.045,0.044-0.23,0.547-0.299,0.666
						c-0.06,0.105-0.141,0.197-0.182,0.315c-0.004,0.012-0.007,0.024-0.011,0.036c0.1-0.185,0.22-0.369,0.274-0.381
						c0.009,0.347-0.038,0.693-0.043,1.031c-0.004,0.292-0.07,0.638-0.001,0.936c-0.035-0.235,0.068-0.613,0.067-0.811
						c0-0.302,0.05-0.598,0.036-0.9c-0.017-0.38,0.108-0.658,0.373-0.927c0.219-0.221,0.323-0.53,0.649-0.617l0.022-0.003
						c0.04-0.187-0.193,0.001-0.252,0.07c0.114-0.187-0.312-0.073-0.388,0.153C98.745,43.1,98.307,43.538,98.168,43.568z
						 M99.924,41.573c0.025-0.016,0.083-0.094,0.138-0.179C100.005,41.45,99.942,41.475,99.924,41.573z M100.177,41.152
						c0.009,0.03-0.05,0.142-0.115,0.243c0.005-0.005,0.011-0.01,0.016-0.016c0.048-0.053,0.071-0.119,0.107-0.178
						c0.041-0.067,0.216-0.344,0.25-0.334c-0.024-0.077,0.073-0.416,0.147-0.243c0.092-0.101,0.03-0.343-0.032-0.235
						c0.018-0.048,0.047-0.216-0.035-0.144l0.005,0.012c0.048,0.185-0.078,0.323-0.128,0.493c-0.06,0.206-0.165,0.346-0.36,0.444
						c-0.155,0.078-0.288,0.186-0.44,0.27c-0.099,0.055-0.26,0.212-0.387,0.261c0.168-0.05,0.323-0.179,0.468-0.263
						C99.842,41.365,100.001,41.244,100.177,41.152z M100.234,49.731c0.004-0.29,0.044-0.562,0.073-0.843
						c-0.017,0.088-0.033,0.175-0.051,0.266C100.22,49.334,100.222,49.53,100.234,49.731z M100.193,50.921
						c0.132-0.351,0.066-0.78,0.041-1.191c0,0.022-0.001,0.043-0.001,0.064C100.236,50.164,100.069,50.542,100.193,50.921z
						 M95.59,45.663c-0.003-0.055,0.002-0.109,0.009-0.164C95.584,45.56,95.579,45.616,95.59,45.663z M96.241,43.946
						c0.106-0.366,0.313-0.589,0.651-0.758c0.278-0.14,0.476-0.399,0.813-0.377l0.022,0.004c0.098-0.164-0.183-0.06-0.261-0.014
						c0.168-0.141-0.272-0.169-0.417,0.02c0.323,0.072-0.232,0.346-0.373,0.33c0.028,0.056-0.394,0.444-0.497,0.535
						c-0.091,0.08-0.197,0.141-0.273,0.24c-0.008,0.01-0.014,0.021-0.021,0.031c0.154-0.143,0.327-0.279,0.382-0.273
						c-0.102,0.331-0.258,0.643-0.371,0.962c-0.094,0.265-0.256,0.559-0.295,0.853c0.056-0.231,0.258-0.535,0.319-0.713
						C96.014,44.5,96.157,44.236,96.241,43.946z M95.884,43.957c-0.129,0.121-0.246,0.246-0.266,0.295
						C95.784,44.189,95.806,44.074,95.884,43.957z M101.942,41.462c-0.125-0.006-0.251-0.001-0.379,0.024
						C101.697,41.503,101.822,41.492,101.942,41.462z M105.123,38.579c-0.936,0.525-2.149,1.344-3.261,1.425
						c-0.556,0.041-1.097-0.1-1.638-0.182c-0.432-0.065-0.973-0.297-1.398-0.259c0.424,0.497,1.848,0.596,2.531,0.65
						c0.643,0.051,1.747-0.109,2.116-0.649c-0.24,0.511-1.204,0.629-1.689,0.844c0.497,0.091,1.375-0.032,1.838-0.256
						c-0.173,0.483-0.951,0.523-1.243,0.909c0.185-0.036,0.39-0.132,0.567-0.248c-0.306,0.263-0.625,0.554-1.004,0.649
						c0.036,0.002,0.071,0.004,0.107,0.008c-0.322,0.138-0.656,0.159-1.028,0.232c0.287-0.05,0.671,0.019,0.932-0.061
						c0.095-0.029,0.168-0.092,0.239-0.154c0.067,0.009,0.134,0.02,0.2,0.03c-0.075,0.085-0.172,0.152-0.271,0.217
						c-0.063,0.009-0.133,0.017-0.213,0.026c0.047,0.016,0.093,0.022,0.139,0.023c-0.118,0.078-0.23,0.16-0.3,0.274
						c0.213-0.059,0.492-0.078,0.657-0.239c-0.076,0.306-0.328,0.655-0.51,0.927c-0.223,0.333-0.463,0.597-0.789,0.831
						c-0.153,0.11-0.3,0.124-0.388,0.31c0.157,0.086,0.358,0.024,0.496-0.084c-0.14,0.267-0.345,0.493-0.586,0.68
						c-0.275,0.213-0.576,0.239-0.764,0.564c0.326-0.108,0.634-0.274,0.948-0.369c0.101,0.489-0.424,0.599-0.55,0.964
						c0.166,0.064,0.246,0.225,0.168,0.389c0.034-0.031,0.109-0.055,0.143-0.085c-0.009,0.228-0.178,0.419-0.182,0.631
						c-0.005,0.237,0.11,0.395,0.077,0.645c-0.056,0.424-0.118,0.829-0.13,1.261c-0.004,0.14-0.016,0.274-0.03,0.406
						c0.093-0.49,0.167-0.95,0.226-1.472c0.032-0.286,0.049-0.583,0.068-0.879c0.026-0.399,0.166-0.599,0.294-0.963
						c0.1-0.286,0.027-0.577,0.119-0.852c0.135-0.403,0.418-0.76,0.584-1.151c0.008-0.017,0.017-0.033,0.027-0.049
						c-0.04,0.033-0.09,0.063-0.13,0.095c0.3-0.364,0.52-0.75,0.747-1.17c0.102-0.189,0.189-0.412,0.316-0.585
						c0.106-0.145,0.374-0.282,0.41-0.408c-0.068,0.011-0.114-0.006-0.182-0.001c0.093-0.183,0.331-0.202,0.462-0.371
						c-0.095,0.063-0.203,0.068-0.313,0.024c0.001-0.001,0.002-0.002,0.002-0.002c0.269-0.072,0.422-0.286,0.595-0.479
						c0.044-0.034,0.09-0.072,0.138-0.115c0.034-0.031,0.065-0.065,0.095-0.1c0.009-0.006,0.018-0.013,0.028-0.02
						c-0.004,0-0.008,0.002-0.012,0.002c0.228-0.28,0.351-0.671,0.619-0.937c0.303-0.301,0.679-0.645,0.784-0.894L105.123,38.579z"
						/>
					
						<linearGradient id="SVGID_23_" gradientUnits="userSpaceOnUse" x1="171.8193" y1="-41.2774" x2="171.9989" y2="-40.6986" gradientTransform="matrix(0.4749 -0.88 0.88 0.4749 59.0292 197.8403)">
						<stop  offset="0" style="stop-color:#981B35"/>
						<stop  offset="0.239" style="stop-color:#6C1120"/>
						<stop  offset="0.3652" style="stop-color:#5A0D17"/>
						<stop  offset="0.9775" style="stop-color:#2B0F15"/>
					</linearGradient>
					<path display="none" fill="url(#SVGID_23_)" d="M109.255,28.123c0.051,0.034,0.105,0.066,0.165,0.091
						c0.195,0.08,0.386,0.101,0.586,0.196c-0.062-0.254-0.394-0.127-0.578-0.216C109.375,28.168,109.315,28.146,109.255,28.123z
						 M108.922,27.866c0-0.001-0.001-0.002-0.001-0.002l0,0.001l-0.049-0.04c0.134,0.096,0.046,0.202,0.109,0.309
						c0.05,0.085,0.16,0.078,0.223,0.145c0.1,0.108,0.076,0.301,0.135,0.434c0.058,0.128,0.178,0.267,0.284,0.35
						c-0.174-0.137-0.092-0.256-0.104-0.434c-0.012-0.165-0.069-0.186-0.184-0.293c-0.12-0.113-0.225-0.217-0.322-0.341
						c0.067,0.058,0.154,0.095,0.242,0.129c-0.108-0.073-0.2-0.16-0.303-0.233L108.922,27.866z M109.323,27.507
						c0.256,0.053,0.284-0.302,0.442-0.429c0.046-0.037,0.09-0.081,0.136-0.124c-0.052,0.031-0.102,0.064-0.15,0.107
						C109.596,27.203,109.495,27.366,109.323,27.507z M110.338,26.732c-0.144,0.08-0.202-0.045-0.326-0.034
						c-0.097,0.009-0.139,0.112-0.227,0.139c-0.14,0.044-0.305-0.06-0.45-0.063c-0.14-0.003-0.318,0.047-0.438,0.107
						c0.198-0.099,0.27,0.026,0.436,0.092c0.154,0.06,0.197,0.016,0.344-0.041c0.153-0.06,0.292-0.111,0.446-0.145
						c-0.082,0.036-0.154,0.1-0.223,0.166c0.113-0.067,0.232-0.114,0.343-0.177l0.035-0.017c0,0,0.002-0.001,0.003-0.001
						c0,0-0.002,0-0.002,0L110.338,26.732z M107.33,28.165c-0.097,0.009-0.139,0.112-0.227,0.139c-0.14,0.044-0.305-0.06-0.45-0.063
						c-0.14-0.003-0.318,0.047-0.438,0.107c0.199-0.099,0.27,0.026,0.436,0.091c0.154,0.06,0.197,0.017,0.344-0.041
						c0.153-0.06,0.293-0.111,0.446-0.145c-0.082,0.036-0.154,0.1-0.223,0.166c0.113-0.067,0.232-0.114,0.343-0.177l0.036-0.016
						c0.001,0,0.002-0.001,0.003-0.001c-0.001,0-0.002,0-0.002,0l0.056-0.027C107.512,28.279,107.454,28.154,107.33,28.165z
						 M106.641,28.973c0.256,0.053,0.284-0.302,0.442-0.43c0.046-0.037,0.09-0.08,0.136-0.124c-0.051,0.031-0.102,0.064-0.149,0.107
						C106.913,28.67,106.813,28.833,106.641,28.973z"/>
					
						<radialGradient id="SVGID_24_" cx="153.4519" cy="-48.0952" r="5.3447" gradientTransform="matrix(0.4749 -0.88 0.88 0.4749 59.0292 197.8403)" gradientUnits="userSpaceOnUse">
						<stop  offset="0.3652" style="stop-color:#5A0D17"/>
						<stop  offset="1" style="stop-color:#501219"/>
					</radialGradient>
					<path display="none" fill="url(#SVGID_24_)" d="M93.681,36.128c1.09,0.509,2.593,0.546,3.48,1.496
						c0.538,0.576,0.645,1.496,0.933,2.187c0.308,0.738,1.252,0.885,1.336,1.759c0.06,0.628-0.396,1.001-0.21,1.686
						c0.21,0.768,0.75,1.196,0.531,2.061c-0.081,0.317-0.332,0.611-0.356,0.936c-0.037,0.501,0.233,0.425,0.393,0.811
						c0.252,0.61-0.665,1.328,0.203,1.607c-0.879-0.222-0.885-3.091-0.955-3.914c-0.119-1.386-0.742-2.977-1.656-4.006
						c-0.43-0.485-1.334-0.687-1.675-1.205c-0.335-0.509-0.133-1.07-0.626-1.534c-0.863-0.813-2.445-1.371-3.006-2.428
						c-0.194-0.365-0.299-0.863-0.356-1.27C91.718,34.315,92.87,35.75,93.681,36.128z"/>
				</g>
				
					<radialGradient id="SVGID_25_" cx="181.0074" cy="-43.1337" r="8.3354" gradientTransform="matrix(0.4749 -0.88 0.88 0.4749 59.0292 197.8403)" gradientUnits="userSpaceOnUse">
					<stop  offset="0.236" style="stop-color:#981B35"/>
					<stop  offset="0.5595" style="stop-color:#6C1120"/>
					<stop  offset="0.7303" style="stop-color:#5A0D17"/>
					<stop  offset="0.9831" style="stop-color:#431111"/>
				</radialGradient>
				<path display="none" fill="url(#SVGID_25_)" d="M118.582,23.676c0.453-0.139,0.96-1.173,1.093-1.612
					c0.077-0.256,0.037-0.444,0.2-0.744c0.192-0.355,0.283-0.624,0.367-0.985c0.079-0.338,0.183-0.638,0.16-0.996
					c-0.018-0.276-0.14-0.523-0.184-0.801c-0.051-0.325,0.079-0.622,0.098-0.905c0.017-0.26-0.021-0.616-0.088-0.876
					c0.088,0.575-0.418,1.328-0.694,1.839c0.264-0.526,0.171-1.104,0.279-1.638c0.107-0.528,0.269-0.561,0.104-1.103
					c-0.21-0.69-0.518-1.375-0.934-2.012c-0.311,0.484-0.427,1.144-0.836,1.566c0.058-0.359,0.131-0.763,0.211-1.098
					c0.071-0.295,0.377-0.61,0.258-0.933c-0.097-0.263-0.432-0.608-0.601-0.361c-0.134,0.195-0.013,0.347-0.047,0.555
					c-0.04,0.248-0.21,0.508-0.351,0.748c-0.021,0.047-0.044,0.09-0.071,0.126c0.022-0.041,0.046-0.084,0.071-0.126
					c0.105-0.235,0.131-0.585,0.184-0.814c0.147-0.628-0.032-0.711-0.226-1.225c-0.034,0.756,0.129,1.502-0.26,2.218
					c-0.457,0.843-0.91,1.687-1.366,2.531c0.246-0.481,0.631-1.391,0.947-2.035c0.247-0.504,0.291-0.933,0.385-1.465
					c0.11-0.623,0.011-1.259-0.263-1.827c-0.071-0.147-0.152-0.289-0.243-0.426c-0.07-0.105-0.21-0.224-0.252-0.339
					c-0.021-0.056-0.025-0.118-0.023-0.181c-0.934-0.645-1.661-1-1.661-1c-5.377,1.44-8.675,14.518-9.096,16.277
					c-0.03,0.127,0.484,0.616,0.787,0.774c3.127,1.629,8.789-0.328,11.16-2.001c0.619-0.436,1.134-0.964,1.553-1.562
					C119.05,23.471,118.823,23.683,118.582,23.676z"/>
				
					<radialGradient id="SVGID_26_" cx="179.899" cy="-45.836" r="10.1433" gradientTransform="matrix(0.4749 -0.88 0.88 0.4749 59.0292 197.8403)" gradientUnits="userSpaceOnUse">
					<stop  offset="0" style="stop-color:#981B35"/>
					<stop  offset="0.239" style="stop-color:#6C1120"/>
					<stop  offset="0.3652" style="stop-color:#5A0D17"/>
					<stop  offset="0.9775" style="stop-color:#2B0F15"/>
				</radialGradient>
				<path display="none" fill="url(#SVGID_26_)" d="M120.449,15.869c-0.39-2.274-2.44-4.072-3.949-5.114
					c-0.002,0.063,0.002,0.124,0.023,0.181c0.042,0.115,0.183,0.234,0.252,0.339c0.09,0.137,0.172,0.279,0.243,0.426
					c0.274,0.568,0.373,1.204,0.263,1.827c-0.094,0.532-0.138,0.961-0.385,1.465c-0.316,0.644-0.701,1.554-0.947,2.035
					c0.455-0.844,0.909-1.688,1.366-2.531c0.388-0.716,0.226-1.462,0.26-2.218c0.194,0.514,0.372,0.597,0.226,1.225
					c-0.053,0.229-0.079,0.579-0.184,0.814c0.141-0.24,0.31-0.499,0.351-0.748c0.034-0.208-0.087-0.36,0.047-0.555
					c0.169-0.247,0.504,0.099,0.601,0.361c0.119,0.323-0.186,0.638-0.258,0.933c-0.081,0.335-0.154,0.739-0.211,1.098
					c0.409-0.422,0.525-1.082,0.836-1.566c0.416,0.637,0.724,1.321,0.934,2.012c0.165,0.542,0.003,0.575-0.104,1.103
					c-0.108,0.535-0.015,1.112-0.279,1.638c0.276-0.511,0.782-1.263,0.694-1.839c0.067,0.26,0.105,0.616,0.088,0.876
					c-0.019,0.283-0.149,0.58-0.098,0.905c0.044,0.278,0.166,0.525,0.184,0.801c0.023,0.358-0.08,0.658-0.16,0.996
					c-0.084,0.361-0.175,0.631-0.367,0.985c-0.163,0.301-0.122,0.489-0.2,0.744c-0.133,0.439-0.64,1.473-1.093,1.612
					c0.241,0.007,0.468-0.204,0.662-0.432C120.585,21.327,120.93,18.674,120.449,15.869z"/>
				
					<linearGradient id="SVGID_27_" gradientUnits="userSpaceOnUse" x1="181.9445" y1="-44.0429" x2="183.4632" y2="-35.1253" gradientTransform="matrix(0.4749 -0.88 0.88 0.4749 59.0292 197.8403)">
					<stop  offset="0.2809" style="stop-color:#A91E5A"/>
					<stop  offset="0.5674" style="stop-color:#981B35"/>
					<stop  offset="0.7512" style="stop-color:#6C1120"/>
					<stop  offset="0.8483" style="stop-color:#5A0D17"/>
				</linearGradient>
				<path display="none" fill="url(#SVGID_27_)" d="M114.991,9.799c1.152,0.622,0.08,4.843-2.395,9.43
					c-2.475,4.586-5.415,7.8-6.567,7.178c-1.152-0.622-0.079-4.843,2.396-9.429C110.899,12.391,113.839,9.177,114.991,9.799z"/>
				
					<radialGradient id="SVGID_28_" cx="194.0209" cy="-35.4254" r="0.8688" gradientTransform="matrix(0.4774 -0.8847 0.88 0.4749 54.7586 205.7539)" gradientUnits="userSpaceOnUse">
					<stop  offset="0" style="stop-color:#981B35"/>
					<stop  offset="0.239" style="stop-color:#6C1120"/>
					<stop  offset="0.3652" style="stop-color:#5A0D17"/>
					<stop  offset="0.9775" style="stop-color:#2B0F15"/>
				</radialGradient>
				<path display="none" fill="url(#SVGID_28_)" d="M120.449,15.869c-0.39-2.274-2.44-4.072-3.949-5.114
					c-0.002,0.063,0.002,0.124,0.023,0.181c0.042,0.115,0.183,0.234,0.252,0.339c0.09,0.137,0.172,0.279,0.243,0.426
					c0.274,0.568,0.373,1.204,0.263,1.827c-0.094,0.532-0.138,0.961-0.385,1.465c-0.316,0.644-0.701,1.554-0.947,2.035
					c0.455-0.844,0.909-1.688,1.366-2.531c0.388-0.716,0.226-1.462,0.26-2.218c0.194,0.514,0.372,0.597,0.226,1.225
					c-0.053,0.229-0.079,0.579-0.184,0.814c0.141-0.24,0.31-0.499,0.351-0.748c0.034-0.208-0.087-0.36,0.047-0.555
					c0.169-0.247,0.504,0.099,0.601,0.361c0.119,0.323-0.186,0.638-0.258,0.933c-0.081,0.335-0.154,0.739-0.211,1.098
					c0.409-0.422,0.525-1.082,0.836-1.566c0.416,0.637,0.724,1.321,0.934,2.012c0.165,0.542,0.003,0.575-0.104,1.103
					c-0.108,0.535-0.015,1.112-0.279,1.638c0.276-0.511,0.782-1.263,0.694-1.839c0.067,0.26,0.105,0.616,0.088,0.876
					c-0.019,0.283-0.149,0.58-0.098,0.905c0.044,0.278,0.166,0.525,0.184,0.801c0.023,0.358-0.08,0.658-0.16,0.996
					c-0.084,0.361-0.175,0.631-0.367,0.985c-0.163,0.301-0.122,0.489-0.2,0.744c-0.133,0.439-0.64,1.473-1.093,1.612
					c0.241,0.007,0.468-0.204,0.662-0.432C120.585,21.327,120.93,18.674,120.449,15.869z"/>
				
					<radialGradient id="SVGID_29_" cx="201.7705" cy="-48.0478" r="7.7156" gradientTransform="matrix(0.4774 -0.8847 0.88 0.4749 54.7586 205.7539)" gradientUnits="userSpaceOnUse">
					<stop  offset="0.236" style="stop-color:#981B35"/>
					<stop  offset="0.6367" style="stop-color:#6C1120"/>
					<stop  offset="0.8483" style="stop-color:#5A0D17"/>
				</radialGradient>
				<path display="none" fill="url(#SVGID_29_)" d="M117.615,14.318c-0.025,0.042-0.049,0.085-0.071,0.126
					C117.571,14.408,117.594,14.365,117.615,14.318z"/>
				
					<radialGradient id="SVGID_30_" cx="187.2742" cy="-34.0938" r="5.0366" gradientTransform="matrix(0.4749 -0.88 0.88 0.4749 59.0292 197.8403)" gradientUnits="userSpaceOnUse">
					<stop  offset="0" style="stop-color:#981B35"/>
					<stop  offset="0.239" style="stop-color:#6C1120"/>
					<stop  offset="0.3652" style="stop-color:#5A0D17"/>
					<stop  offset="0.9775" style="stop-color:#2B0F15"/>
				</radialGradient>
				<path display="none" fill="url(#SVGID_30_)" d="M117.615,14.318c-0.025,0.042-0.049,0.085-0.071,0.126
					C117.571,14.408,117.594,14.365,117.615,14.318z"/>
				
					<radialGradient id="SVGID_31_" cx="178.0891" cy="-34.4428" r="0.5204" gradientTransform="matrix(0.4749 -0.88 0.88 0.4749 59.0292 197.8403)" gradientUnits="userSpaceOnUse">
					<stop  offset="0" style="stop-color:#981B35"/>
					<stop  offset="0.239" style="stop-color:#6C1120"/>
					<stop  offset="0.3652" style="stop-color:#5A0D17"/>
					<stop  offset="0.9775" style="stop-color:#2B0F15"/>
				</radialGradient>
				<path display="none" fill="url(#SVGID_31_)" d="M114.932,22.806c0.622-1.102,0.952-1.929,0.952-1.929
					C115.552,21.599,115.235,22.239,114.932,22.806z M111.791,26.719l-0.001,0.069c-0.196,0.164-0.396,0.32-0.604,0.464
					c0,0,0.237-0.016,0.674-0.328c0.127,0.244,0.39,0.432,0.513,0.671c0.146,0.285,0.182,0.598,0.385,0.918
					c-0.131-0.392-0.327-0.79-0.367-1.179c0.139,0.087,0.334,0.154,0.512,0.181c-0.362-0.079-0.575-0.513-0.983-0.635
					c0.642-0.479,1.681-1.574,3.012-4.074c-0.695,1.234-1.757,2.814-3.127,3.969C111.8,26.756,111.794,26.738,111.791,26.719z"/>
				
					<radialGradient id="SVGID_32_" cx="178.3905" cy="-31.6199" r="0.3325" gradientTransform="matrix(0.4749 -0.88 0.88 0.4749 59.0292 197.8403)" gradientUnits="userSpaceOnUse">
					<stop  offset="0" style="stop-color:#981B35"/>
					<stop  offset="0.239" style="stop-color:#6C1120"/>
					<stop  offset="0.3652" style="stop-color:#5A0D17"/>
					<stop  offset="0.9775" style="stop-color:#2B0F15"/>
				</radialGradient>
				<path display="none" fill="url(#SVGID_32_)" d="M116.386,25.691c0.122,0.115,0.34,0.213,0.451,0.329
					C116.722,25.873,116.568,25.761,116.386,25.691z M115.168,27.336c0.04-0.141,0.034-0.271,0.031-0.4
					c-0.117,0.316-0.207,0.639-0.296,0.893C114.983,27.675,115.121,27.501,115.168,27.336z M116.837,26.02
					c0.019,0.024,0.037,0.049,0.053,0.074C116.879,26.069,116.86,26.044,116.837,26.02z M115.889,25.714
					c-0.113,0.137-0.155,0.221-0.255,0.364c-0.089,0.127-0.299,0.312-0.356,0.42c-0.079,0.15-0.081,0.293-0.078,0.438
					c0.171-0.462,0.402-0.91,0.781-1.108c-0.006,0.057-0.02,0.108-0.029,0.163c0.284,0.119,0.365,0.72,0.465,0.997
					c0.06-0.511-0.574-1.076-0.217-1.456c0.024,0.037,0.022,0.077,0.042,0.114c0.05,0.012,0.098,0.028,0.144,0.046
					c-0.033-0.032-0.062-0.064-0.076-0.1c-0.091-0.233,0.131-0.589,0.16-0.864c0.016-0.153,0.038-0.294,0.067-0.428
					c-0.048,0.102-0.09,0.206-0.117,0.314C116.299,25.086,116.193,25.345,115.889,25.714z M116.537,24.299
					c0.155-0.332,0.38-0.645,0.477-0.993c0.041-0.042,0.073-0.091,0.035-0.185C116.782,23.542,116.626,23.887,116.537,24.299z
					 M114.948,26.744c0.042-0.119,0.079-0.236,0.121-0.348C114.994,26.507,114.937,26.627,114.948,26.744z M115.924,25.385
					l-0.016,0.029c-0.061,0.096-0.141,0.193-0.224,0.275c-0.103,0.1-0.233,0.128-0.326,0.221c-0.142,0.142-0.223,0.308-0.289,0.486
					c0.067-0.1,0.149-0.193,0.208-0.266C115.472,25.891,115.85,25.7,115.924,25.385z"/>
				
					<radialGradient id="SVGID_33_" cx="184.9993" cy="-39.7061" r="2.5665" gradientTransform="matrix(0.4749 -0.88 0.88 0.4749 59.0292 197.8403)" gradientUnits="userSpaceOnUse">
					<stop  offset="0.236" style="stop-color:#981B35"/>
					<stop  offset="0.5595" style="stop-color:#6C1120"/>
					<stop  offset="0.7303" style="stop-color:#5A0D17"/>
					<stop  offset="0.9831" style="stop-color:#431111"/>
				</radialGradient>
				<path display="none" fill="url(#SVGID_33_)" d="M113.208,15.154c0.054,0.029,0.041,0.157-0.029,0.286
					c-0.07,0.129-0.17,0.21-0.223,0.181c-0.054-0.029-0.041-0.157,0.029-0.287S113.154,15.125,113.208,15.154z"/>
				
					<radialGradient id="SVGID_34_" cx="171.7259" cy="-43.1105" r="14.1146" gradientTransform="matrix(0.4749 -0.88 0.88 0.4749 59.0292 197.8403)" gradientUnits="userSpaceOnUse">
					<stop  offset="0.236" style="stop-color:#981B35"/>
					<stop  offset="0.5595" style="stop-color:#6C1120"/>
					<stop  offset="0.7303" style="stop-color:#5A0D17"/>
					<stop  offset="0.9831" style="stop-color:#431111"/>
				</radialGradient>
				<path display="none" fill="url(#SVGID_34_)" d="M106.938,25.35c0.054,0.029,0.041,0.157-0.029,0.286
					c-0.07,0.129-0.17,0.21-0.224,0.181c-0.054-0.029-0.041-0.157,0.029-0.286C106.784,25.402,106.884,25.321,106.938,25.35z"/>
				
					<radialGradient id="SVGID_35_" cx="187.0539" cy="-39.6843" r="2.0245" gradientTransform="matrix(0.4749 -0.88 0.88 0.4749 59.0292 197.8403)" gradientUnits="userSpaceOnUse">
					<stop  offset="0.236" style="stop-color:#981B35"/>
					<stop  offset="0.5595" style="stop-color:#6C1120"/>
					<stop  offset="0.7303" style="stop-color:#5A0D17"/>
					<stop  offset="0.9831" style="stop-color:#431111"/>
				</radialGradient>
				<circle display="none" fill="url(#SVGID_35_)" cx="113.603" cy="14.562" r="0.044"/>
				
					<radialGradient id="SVGID_36_" cx="186.2422" cy="-38.6598" r="0.1249" gradientTransform="matrix(0.4749 -0.88 0.88 0.4749 59.0292 197.8403)" gradientUnits="userSpaceOnUse">
					<stop  offset="0.236" style="stop-color:#981B35"/>
					<stop  offset="0.5595" style="stop-color:#6C1120"/>
					<stop  offset="0.7303" style="stop-color:#5A0D17"/>
					<stop  offset="0.9831" style="stop-color:#431111"/>
				</radialGradient>
				<path display="none" fill="url(#SVGID_36_)" d="M113.578,15.354c0,0-0.047,0.087-0.105,0.195
					c-0.058,0.108-0.105,0.195-0.105,0.195s0.047-0.087,0.105-0.195C113.531,15.441,113.578,15.354,113.578,15.354z"/>
				
					<radialGradient id="SVGID_37_" cx="187.0535" cy="-39.6854" r="2.0271" gradientTransform="matrix(0.4749 -0.88 0.88 0.4749 59.0292 197.8403)" gradientUnits="userSpaceOnUse">
					<stop  offset="0.236" style="stop-color:#981B35"/>
					<stop  offset="0.5595" style="stop-color:#6C1120"/>
					<stop  offset="0.7303" style="stop-color:#5A0D17"/>
					<stop  offset="0.9831" style="stop-color:#431111"/>
				</radialGradient>
				<path display="none" fill="url(#SVGID_37_)" d="M113.731,14.933c0.01,0.006,0.001,0.045-0.023,0.088
					c-0.023,0.043-0.051,0.073-0.061,0.067c-0.011-0.006-0.001-0.046,0.022-0.089C113.692,14.957,113.72,14.927,113.731,14.933z"/>
				
					<radialGradient id="SVGID_38_" cx="187.053" cy="-39.6841" r="2.025" gradientTransform="matrix(0.4749 -0.88 0.88 0.4749 59.0292 197.8403)" gradientUnits="userSpaceOnUse">
					<stop  offset="0.236" style="stop-color:#981B35"/>
					<stop  offset="0.5595" style="stop-color:#6C1120"/>
					<stop  offset="0.7303" style="stop-color:#5A0D17"/>
					<stop  offset="0.9831" style="stop-color:#431111"/>
				</radialGradient>
				<circle display="none" fill="url(#SVGID_38_)" cx="113.885" cy="14.412" r="0.044"/>
				
					<radialGradient id="SVGID_39_" cx="187.9031" cy="-39.0141" r="0.0499" gradientTransform="matrix(0.4749 -0.88 0.88 0.4749 59.0292 197.8403)" gradientUnits="userSpaceOnUse">
					<stop  offset="0.236" style="stop-color:#981B35"/>
					<stop  offset="0.5595" style="stop-color:#6C1120"/>
					<stop  offset="0.7303" style="stop-color:#5A0D17"/>
					<stop  offset="0.9831" style="stop-color:#431111"/>
				</radialGradient>
				<path display="none" fill="url(#SVGID_39_)" d="M113.982,13.861c0,0-0.019,0.035-0.042,0.078
					c-0.023,0.043-0.042,0.078-0.042,0.078s0.019-0.035,0.042-0.078C113.963,13.895,113.982,13.861,113.982,13.861z"/>
				
					<radialGradient id="SVGID_40_" cx="187.0538" cy="-39.6832" r="2.024" gradientTransform="matrix(0.4749 -0.88 0.88 0.4749 59.0292 197.8403)" gradientUnits="userSpaceOnUse">
					<stop  offset="0.236" style="stop-color:#981B35"/>
					<stop  offset="0.5595" style="stop-color:#6C1120"/>
					<stop  offset="0.7303" style="stop-color:#5A0D17"/>
					<stop  offset="0.9831" style="stop-color:#431111"/>
				</radialGradient>
				<path display="none" fill="url(#SVGID_40_)" d="M114.245,13.046c0.011,0.006,0.01,0.028-0.002,0.049
					c-0.012,0.022-0.03,0.034-0.04,0.028c-0.011-0.006-0.01-0.028,0.002-0.049C114.216,13.053,114.234,13.04,114.245,13.046z"/>
			</g>
			
				<radialGradient id="SVGID_41_" cx="173.2208" cy="-41.9828" r="0.566" gradientTransform="matrix(0.4749 -0.88 0.88 0.4749 59.0292 197.8403)" gradientUnits="userSpaceOnUse">
				<stop  offset="0" style="stop-color:#981B35"/>
				<stop  offset="0.239" style="stop-color:#6C1120"/>
				<stop  offset="0.3652" style="stop-color:#5A0D17"/>
				<stop  offset="0.9775" style="stop-color:#2B0F15"/>
			</radialGradient>
			<path display="none" fill="url(#SVGID_41_)" d="M106.026,26.481c0,0,1.85,1.285,4.962,0.858c0,0,0.1,1.307-0.164,2.146
				c0,0-0.476-0.936-2.181-1.555C106.937,27.312,106.003,26.733,106.026,26.481z"/>
		</g>
	</g>
</g>
</svg>
